<svg width="196" height="118" viewBox="0 0 196 118" fill="none" xmlns="http://www.w3.org/2000/svg">
<path d="M186.919 65.5548L186.315 71.3256L184.817 85.6593H154.711C154.946 82.4466 155.267 77.8225 155.611 72.8306C155.645 72.3321 155.68 71.8304 155.714 71.3256C156.575 58.7775 157.517 44.5778 157.517 44.5778L161.475 45.4628L169.154 47.1766L172.283 47.8746L180.663 49.7473C184.841 50.679 187.714 57.9393 186.919 65.5548V65.5548Z" fill="#F2F2F2"/>
<path d="M163.996 20.9778L167.822 28.8418L160.469 34.963L157.333 25.2966L163.996 20.9778Z" fill="#FFB6B6"/>
<path d="M159.082 28.8445C164.392 28.8445 168.696 23.7571 168.696 17.4815C168.696 11.2059 164.392 6.11853 159.082 6.11853C153.771 6.11853 149.467 11.2059 149.467 17.4815C149.467 23.7571 153.771 28.8445 159.082 28.8445Z" fill="#FFB6B6"/>
<path d="M158.523 20.0343C157.786 18.7006 158.075 18.0031 157.458 17.5129C157.458 17.5129 157.21 17.3157 155.434 17.2033C155.036 13.7985 154.54 13.3856 154.54 13.3856C153.968 12.9098 153.118 13.0644 152.59 13.3554C151.473 13.971 151.603 15.3006 150.85 15.5551C149.811 15.9066 147.921 13.9251 147.734 11.6566C147.582 9.80625 148.585 8.00906 148.982 8.10413C149.376 8.1984 150.32 6.76541 150.829 6.78751C151.177 6.8026 152.599 6.06756 152.981 6.12503C153.399 6.1878 154.776 7.04265 154.834 6.84734C155.232 5.49014 155.115 5.11358 155.453 4.72531C156.053 4.03731 157.034 4.51642 158.573 4.77363C161.739 5.30285 162.291 4.06106 163.914 4.90275C164.733 5.32794 165.419 6.4746 166.757 8.75058C168.629 11.9335 169.565 13.525 169.571 15.3812C169.577 17.2742 168.806 17.154 168.468 19.9565C168.091 23.076 168.891 24.5025 168.017 25.516C167.341 26.2993 165.967 26.4852 165.245 25.7978C164.009 24.6208 165.626 21.7807 164.259 19.7057C163.419 18.432 161.731 17.8653 160.957 18.4949C160.083 19.2068 160.564 21.2963 159.949 21.4945C159.423 21.6642 158.651 20.2668 158.523 20.0344L158.523 20.0343Z" fill="#2F2E41"/>
<path d="M179.999 63.1158C179.743 68.3413 178.729 69.991 178.373 76.1622C178.296 77.517 178.249 79.0897 178.249 80.9652C178.249 81.4434 178.251 81.9057 178.251 82.3573C178.251 83.3189 178.236 84.2276 178.142 85.1493C178.072 85.8852 177.949 86.6264 177.747 87.4074H158.025C158.023 87.4021 158.023 87.3968 158.02 87.3914C157.905 86.7911 157.831 86.2173 157.776 85.6674C157.758 85.492 157.743 85.3194 157.729 85.1493C157.712 84.9501 157.696 84.7536 157.681 84.5596C157.621 83.7865 157.561 83.056 157.418 82.3573C157.228 81.3929 156.881 80.4844 156.171 79.6078C155.88 79.2491 155.589 78.9702 155.305 78.7258C155.249 78.6806 155.196 78.6354 155.14 78.5903C154.355 77.9447 153.611 77.4798 152.967 76.1622C152.956 76.1436 152.947 76.1223 152.938 76.1038C152.827 75.8726 152.538 75.2669 152.33 74.4594C152.11 73.6199 151.977 72.5652 152.216 71.4867C152.787 68.9311 154.901 68.6761 156.628 66.0938C156.815 65.8149 156.999 65.5067 157.174 65.164C157.956 63.6444 158.167 62.3056 158.415 60.7143C158.455 60.4566 158.491 60.2015 158.52 59.9546C158.542 59.7685 158.562 59.5853 158.578 59.4046C158.715 57.8877 158.648 56.5807 158.487 55.4118C157.958 51.5837 156.399 49.214 157.501 45.7791C157.847 44.7006 158.338 43.8903 158.833 43.197C159.881 41.7278 160.958 40.7742 160.771 38.8775C160.582 36.9647 159.37 36.7016 159.235 35.0306C159.166 34.1859 159.397 33.296 159.83 32.4219V32.4194C161.215 29.606 164.674 27.0158 166.872 27.0982C167.279 27.1116 167.638 27.2204 167.938 27.4303C169.024 28.1953 168.571 29.8663 170.234 32.2095C171.471 33.9495 172.869 34.6455 173.4 34.9749C175.503 36.2873 177.212 40.1579 178.373 45.107C178.382 45.1442 178.391 45.1813 178.4 45.2213C179.117 48.3215 179.624 51.8414 179.874 55.4118C179.981 56.9234 180.043 58.443 180.056 59.9465C180.068 61.1473 180.045 62.1888 179.999 63.1158Z" fill="#6C63FF"/>
<path d="M165.222 81.1564L164.813 82.4987L164.556 83.3402L163.959 85.2977L163.268 87.5615H158.824L159.57 85.2977L159.915 84.2431L160.489 82.4987L161.452 79.5691L165.222 81.1564Z" fill="#FFB6B6"/>
<path d="M178.667 44.6964C178.656 44.8697 178.64 45.0613 178.624 45.2691C178.448 47.3837 178.032 51.1682 177.424 55.4853C177.104 57.7624 176.729 60.1887 176.306 62.5989C175.398 67.8001 174.268 72.9217 172.992 76.2879C172.764 76.8952 172.529 77.4439 172.289 77.9285C172.106 78.2988 171.914 78.6635 171.713 79.0231C171.063 80.203 170.333 81.3216 169.576 82.3656C169.547 82.4108 169.513 82.4535 169.479 82.4987C169.357 82.6691 169.23 82.837 169.104 83.0047C168.485 83.8276 167.852 84.5946 167.24 85.2977C166.494 86.1554 165.776 86.9144 165.132 87.5615H157.916L157.887 87.5455L156.848 87.0022C156.848 87.0022 157.144 86.592 157.638 85.8171C157.74 85.6599 157.848 85.4868 157.966 85.2977C158.111 85.066 158.266 84.8103 158.434 84.5333C158.781 83.9528 159.177 83.271 159.601 82.4987C160.424 81.0045 161.361 79.1669 162.308 77.0391C162.417 76.7913 162.527 76.541 162.638 76.2879C162.64 76.28 162.645 76.2719 162.647 76.264C162.835 75.8325 163.02 75.3878 163.205 74.935C164.775 71.0839 165.225 67.888 165.354 66.8521C165.534 65.3873 165.785 63.3392 165.717 61.0861C165.672 59.6001 165.489 58.0287 165.053 56.4681V56.4654C164.963 56.1379 164.861 55.8103 164.746 55.4853C164.54 54.9021 164.296 54.3268 164.007 53.7595C162.731 51.2614 161.694 51.1575 160.869 48.4356C160.625 47.6287 160.071 45.8071 160.241 43.8842V43.8816C160.261 43.6445 160.295 43.4049 160.34 43.1651V43.1625C160.352 43.0959 160.368 43.0267 160.383 42.9601C160.512 42.3715 160.724 41.7882 161.047 41.2342C161.678 40.1584 162.538 39.5191 163.309 39.1383L163.311 39.1356C164.201 38.6989 164.97 38.6057 165.119 38.5897C168.419 38.2435 170.979 41.5139 172.377 43.301C172.917 43.9907 173.412 44.5687 173.864 45.04C177.381 48.742 178.346 46.377 178.597 45.1546C178.635 44.9655 178.656 44.8031 178.667 44.6964V44.6964Z" fill="#6C63FF"/>
<path d="M178.678 44.5579C178.678 44.5712 178.676 44.6164 178.667 44.6911C178.671 44.651 178.674 44.6111 178.676 44.5738C178.676 44.5659 178.676 44.5605 178.678 44.5579Z" fill="#6C63FF"/>
<path d="M160.541 100.519H39.6241C38.5007 100.519 37.585 101.694 37.585 103.139C37.585 104.588 38.5007 105.763 39.6241 105.763H160.541C161.664 105.763 162.578 104.588 162.578 103.139C162.578 101.694 161.664 100.519 160.541 100.519Z" fill="#E6E6E6"/>
<path d="M133.458 112.756H66.7034C65.5884 112.756 64.6816 113.931 64.6816 115.376C64.6816 116.822 65.5884 118 66.7034 118H133.458C134.573 118 135.482 116.822 135.482 115.376C135.482 113.931 134.573 112.756 133.458 112.756Z" fill="#E6E6E6"/>
<path d="M53.3184 21.4181L60.6588 17.4815L63.8072 25.7064L56.0935 29.7185L53.3184 21.4181Z" fill="#FFB6B6"/>
<path opacity="0.1" d="M53.3184 21.4181L60.6588 17.4815L63.8072 25.7064L56.0935 29.7185L53.3184 21.4181Z" fill="black"/>
<path d="M54.509 18.2602L62.0588 28.5782C62.0588 28.5782 56.8067 48.2409 51.5547 49.9931C46.3026 51.7452 36.6191 60.3111 36.6191 60.3111L24.4736 50.9665L30.3822 40.6484C30.3822 40.6484 44.6613 17.4815 48.4362 17.4815C52.2112 17.4815 54.509 18.2602 54.509 18.2602V18.2602Z" fill="#6C63FF"/>
<path d="M43.7037 85.6593H26.3852L25.2902 83.8873L20.8199 76.6528L19.7912 74.9886C19.7912 74.9886 15.9096 66.3737 16.7183 58.542C17.5269 50.7103 25.9371 48.9482 25.9371 48.9482H26.2833L36.5793 59.9008L35.9647 70.0938L39.2253 76.6528L43.7037 85.6593Z" fill="#2F2E41"/>
<path d="M29.719 85.6593H25.3486V76.9185L29.719 85.6593Z" fill="#2F2E41"/>
<path d="M130.986 72.8266L130.415 76.5101L128.997 85.6593H100.519C100.741 83.6087 101.045 80.6571 101.37 77.4708C101.402 77.1526 101.435 76.8323 101.467 76.5101C102.282 68.5007 103.173 59.437 103.173 59.437L106.917 60.0019L114.181 61.0958L117.141 61.5414L125.067 62.7367C129.02 63.3314 131.738 67.9656 130.986 72.8266H130.986Z" fill="#F2F2F2"/>
<path d="M173.066 85.6593H156.459C156.712 85.3106 156.855 85.1091 156.855 85.1091L161.833 84.1459L172.091 82.163C172.091 82.163 172.559 83.5796 173.066 85.6593V85.6593Z" fill="#2F2E41"/>
<path d="M105.515 25.3481L112.756 37.1504L100.126 37.5852L98.7705 26.4938L105.515 25.3481Z" fill="#A0616A"/>
<path opacity="0.1" d="M105.515 25.3481L112.756 37.1504L100.126 37.5852L98.7705 26.4938L105.515 25.3481Z" fill="black"/>
<path d="M71.5534 48.9668C70.7098 45.9502 68.7702 44.0446 67.2215 44.7104C65.6728 45.3762 65.1016 48.3609 65.9458 51.3784C66.2697 52.5895 66.8229 53.6868 67.5591 54.5786L71.2639 67.3037L76.0446 65.0215L71.8848 52.7191C72.0177 51.4534 71.904 50.1668 71.5534 48.9668Z" fill="#A0616A"/>
<path d="M118 43.2346L117.991 55.0586L117.073 59.426L115.187 68.4088L113.813 76.6706L112.79 82.8259L112.425 85.0242C112.15 85.245 111.876 85.456 111.602 85.6592H87.7707C86.4168 84.6842 85.6592 83.926 85.6592 83.926C85.6592 83.926 86.0339 83.5039 86.4624 82.8259C87.1858 81.6808 88.0607 79.8049 87.5247 78.013C87.4123 77.6378 87.383 77.1806 87.4172 76.6706C87.6355 73.3057 90.578 67.6154 90.578 67.6154L89.9686 59.17L89.7014 55.469L91.5854 37.4231L97.7261 33.1418L98.7863 33.0188L109.251 32.3407L113.576 32.6397L113.774 32.7042L118 43.2346V43.2346Z" fill="#CCCCCC"/>
<path d="M118.701 85.298H113.463L113.232 82.5001L113.228 82.4442L114.711 82.3245L118.569 82.0139L118.636 83.6888L118.688 84.9739L118.701 85.298Z" fill="#FFB6B6"/>
<path d="M119.991 46.2279L122.191 61.4466L120.396 76.4221L120.116 78.7531L119.622 82.8689L119.469 84.1347L119.474 84.2717L119.512 85.2982H113.292L113.063 82.5003L113.043 82.2495L112.575 76.5186L112.567 76.4221L111.573 64.2696L113.521 55.4861L113.665 54.8397V54.8378L114.513 39.7985L113.856 32.964L113.85 32.9003C113.863 32.9099 113.874 32.9196 113.887 32.9292C113.922 32.9543 113.956 32.9794 113.989 33.0064C117.812 35.8661 120.091 40.883 119.991 46.2279Z" fill="#CCCCCC"/>
<path d="M93.5259 40.5378L91.2043 37.5852C91.2043 37.5852 86.2346 40.3402 85.9869 41.8686C85.7391 43.3971 76.9645 65.8459 76.9645 65.8459L73.1469 53.3083L68.1777 57.3879C68.1777 57.3879 72.165 76.8533 75.894 77.7671C79.6229 78.6809 92.1207 54.728 92.1207 54.728L93.5259 40.5378H93.5259Z" fill="#CCCCCC"/>
<path d="M191.011 76.0444H4.7796C2.14363 76.0444 0 78.5946 0 81.7272C0 84.8599 2.14363 87.4074 4.7796 87.4074H191.011C193.647 87.4074 195.793 84.86 195.793 81.7272C195.793 78.5945 193.647 76.0444 191.011 76.0444Z" fill="#E6E6E6"/>
<path d="M117.126 58.6999L116.763 78.6821C116.728 80.6165 115.389 82.1629 113.75 82.1629H82.6063C81.0058 82.1629 79.6845 80.6863 79.5971 78.8001L78.6716 58.8178C78.5772 56.7801 79.9517 55.0667 81.6808 55.0667H114.113C115.802 55.0667 117.162 56.706 117.126 58.6999Z" fill="#3F3D56"/>
<path d="M66.8671 26.2222C70.9704 26.2222 74.2968 22.3089 74.2968 17.4815C74.2968 12.6541 70.9704 8.74075 66.8671 8.74075C62.7639 8.74075 59.4375 12.6541 59.4375 17.4815C59.4375 22.3089 62.7639 26.2222 66.8671 26.2222Z" fill="#FFB6B6"/>
<path d="M54.8325 40.8702L55.647 51.2441L61.1854 77.5629L56.4006 79.5408L48.3167 50.8599L47.2002 39.3333L54.8325 40.8702Z" fill="#FFB6B6"/>
<path d="M52.4439 58.6999L52.0811 78.6821C52.046 80.6165 50.7074 82.1629 49.0681 82.1629H17.9246C16.3242 82.1629 15.0028 80.6863 14.9155 78.8001L13.9899 58.8178C13.8956 56.7801 15.2701 55.0667 16.9991 55.0667H49.4309C51.1206 55.0667 52.4801 56.706 52.4439 58.6999Z" fill="#3F3D56"/>
<path d="M61.6219 83.037C64.7597 83.037 67.3034 81.6674 67.3034 79.9778C67.3034 78.2882 64.7597 76.9185 61.6219 76.9185C58.4841 76.9185 55.9404 78.2882 55.9404 79.9778C55.9404 81.6674 58.4841 83.037 61.6219 83.037Z" fill="#FFB6B6"/>
<path d="M42.8301 42.0004L46.1845 21.2946C46.1845 21.2946 55.5114 19.7785 55.8387 23.3793C56.166 26.9801 55.6049 44.5778 55.6049 44.5778L42.8301 42.0004V42.0004Z" fill="#6C63FF"/>
<path d="M63.8188 19.1785C63.8188 19.1785 68.345 17.2369 70.2542 16.1923C72.1635 15.1476 75.9565 22.4339 76.0408 18.5858C76.1252 14.7377 74.8146 13.1239 74.8146 13.1239C74.8146 13.1239 74.4873 4.70554 67.4307 5.75804C67.4307 5.75804 68.9829 1.54624 63.8879 0.89496C58.793 0.243683 50.8666 15.0313 51.5764 17.2412C52.2863 19.4512 53.1373 21.2782 51.1233 23.6411C49.1093 26.004 45.3381 39.3397 48.2074 42.9282C51.0767 46.5167 51.265 48.0739 49.2991 50.3064C47.3331 52.5389 42.6862 57.3932 47.7106 58.236C52.735 59.0787 47.2509 58.4493 50.9967 54.4892C54.7424 50.5292 60.2083 50.6909 58.1674 44.3374C56.1266 37.9838 59.6723 28.8792 59.2286 27.498C58.785 26.1168 60.2226 17.3461 60.2226 17.3461C60.2226 17.3461 63.5686 16.7552 63.8188 19.1785V19.1785Z" fill="#2F2E41"/>
<path d="M101.932 29.6517C106.404 29.6517 110.029 25.3785 110.029 20.1072C110.029 14.8359 106.404 10.5627 101.932 10.5627C97.4609 10.5627 93.8359 14.8359 93.8359 20.1072C93.8359 25.3785 97.4609 29.6517 101.932 29.6517Z" fill="#A0616A"/>
<path d="M102.579 7.27531C102.345 7.43653 102.031 7.19261 101.956 6.88533C101.881 6.57804 101.968 6.25179 102.055 5.9488L102.492 4.42352C102.802 3.34175 103.13 2.22218 103.801 1.39882C104.814 0.156081 106.424 -0.160066 107.873 0.0689711C109.733 0.363101 111.569 1.55082 112.434 3.51486C113.299 5.47891 112.931 8.21945 111.368 9.44482C113.596 12.4552 114.372 15.8101 114.25 19.8026C114.127 23.7951 110.436 27.4694 108.03 30.282C107.492 29.8979 107.003 28.0979 107.299 27.444C107.595 26.79 107.171 26.0325 107.537 25.4301C107.903 24.8278 108.209 25.7869 107.839 25.188C107.606 24.8101 108.517 23.9407 108.17 23.7145C106.491 22.6204 105.933 20.1534 104.878 18.2642C103.606 15.9855 101.43 14.4424 99.1258 14.1863C97.8568 14.0453 96.5164 14.3007 95.4763 15.1692C94.4361 16.0377 93.7627 17.5898 94.0039 19.0652C93.3792 18.3175 93.0682 17.2217 93.1855 16.1814C93.3028 15.1411 93.8458 14.1791 94.6144 13.6496C94.147 11.8276 94.5474 9.73172 95.6323 8.32176C96.7171 6.9118 101.118 7.15194 102.701 7.52302L102.579 7.27531Z" fill="#2F2E41"/>
<path d="M102.825 14.2417C104.923 14.5086 106.437 16.6506 107.716 18.6287C108.453 19.7689 109.226 21.028 109.207 22.4614C109.188 23.9106 108.366 25.1535 107.974 26.5269C107.332 28.7718 107.957 31.4426 109.486 32.9807C107.976 33.3186 106.343 31.9837 106.082 30.1979C105.779 28.1189 107.116 26.1124 106.957 24.0112C106.818 22.16 105.58 20.7352 104.528 19.3511C103.476 17.967 102.488 16.1302 102.972 14.3615L102.825 14.2417Z" fill="#2F2E41"/>
<path d="M134.185 77.4947C132.107 78.8878 131.033 81.2809 131.785 82.8395C132.537 84.3981 134.831 84.5319 136.909 83.138C137.746 82.5946 138.46 81.8229 138.992 80.8874L147.732 74.8536L145.243 70.0789L136.891 76.5341C135.937 76.5949 135.009 76.9243 134.185 77.4947Z" fill="#FFB6B6"/>
<path d="M163.778 33.2485C163.517 33.1264 161.225 32.1033 159.133 33.4541C156.729 35.0058 156.358 38.548 156.228 39.7903C155.927 42.6603 156.813 43.3035 157 46.209C157.35 51.6447 158.273 45.4436 156.799 47.9248C156.289 48.7836 151.079 62.0927 148.206 64.6996C142.619 69.7697 139.07 73.3403 139.07 73.3403L143.121 78.5277C143.121 78.5277 149.522 76.5171 155.18 72.1864C160.983 67.7441 163.885 65.523 166.13 61.1778C166.323 60.8037 170.949 51.5433 168.465 41.3035C167.898 38.9678 166.86 34.6884 163.778 33.2485Z" fill="#6C63FF"/>
<path d="M184.429 58.6999L184.066 78.6821C184.031 80.6165 182.693 82.1629 181.053 82.1629H149.91C148.309 82.1629 146.988 80.6863 146.901 78.8001L145.975 58.8178C145.881 56.7801 147.255 55.0667 148.984 55.0667H181.416C183.106 55.0667 184.465 56.706 184.429 58.6999Z" fill="#3F3D56"/>
</svg>
