<svg width="582" height="405" viewBox="0 0 582 405" fill="none" xmlns="http://www.w3.org/2000/svg">
<g filter="url(#filter0_d_1201_441)">
<path d="M286.785 80.8148C295.643 80.8148 302.824 73.3469 302.824 64.1347C302.824 54.9225 295.643 47.4546 286.785 47.4546C277.927 47.4546 270.746 54.9225 270.746 64.1347C270.746 73.3469 277.927 80.8148 286.785 80.8148Z" fill="#FD6584"/>
<path d="M289.556 81.1866C289.525 80.4728 289.41 79.7656 289.214 79.0811C288.752 77.5059 287.86 76.1059 286.648 75.053C285.435 74.0001 283.954 73.34 282.388 73.1539C282.353 73.1507 282.319 73.1507 282.284 73.1539C282.238 73.1402 282.191 73.1295 282.144 73.122C279.123 72.7353 276.057 73.0646 273.174 74.0854C268.742 75.6358 264.852 78.7621 262.978 83.2283C262.22 82.1468 261.221 81.2748 260.068 80.6878C258.914 80.1008 257.642 79.8165 256.359 79.8595C254.707 79.9737 253.129 80.6175 251.839 81.7034C250.55 82.7892 249.612 84.2642 249.155 85.9271C249.107 86.1303 249.122 86.344 249.198 86.5376C249.274 86.7313 249.406 86.895 249.576 87.0054C250.068 87.443 250.651 87.7534 251.279 87.9114C252.635 88.2112 253.99 88.4856 255.358 88.7344C258.02 89.2193 260.694 89.6128 263.381 89.9148C268.839 90.5271 274.331 90.7445 279.817 90.5655C281.643 90.5017 283.408 90.4379 285.081 89.5958C286.298 88.969 287.337 88.0212 288.097 86.8459C289.167 85.1792 289.68 83.1896 289.556 81.1866V81.1866Z" fill="#E6E6E6"/>
<path d="M503.639 285.715C503.876 297.321 502.327 308.891 499.052 319.994C498.937 320.397 498.799 320.801 498.662 321.204H431.138C432.103 316.288 433.635 311.509 435.702 306.97C441.321 294.635 450.496 284.078 459.556 273.593C472.033 259.146 484.212 244.817 486.139 226.029C491.085 233.827 495.032 242.256 497.882 251.104C494.393 252.441 491.19 254.472 488.455 257.082C487.698 257.817 486.896 258.885 487.286 259.905C487.653 260.759 488.662 261.044 489.556 261.233C491.712 261.66 493.868 262.087 496.024 262.491C497.721 262.846 499.442 263.179 501.162 263.511C502.674 270.813 503.503 278.249 503.639 285.715V285.715Z" fill="#F2F2F2"/>
<path d="M560.149 278.082C549.316 284.882 542.431 295.402 536.809 307.178C531.916 308.329 527.399 310.779 523.704 314.286C522.924 315.02 522.121 316.087 522.534 317.105C522.878 317.958 523.911 318.243 524.806 318.432C526.94 318.859 529.12 319.285 531.255 319.688C531.048 320.186 530.842 320.707 530.635 321.204H459.032C462.282 316.679 465.882 312.431 469.795 308.505C470.644 307.628 471.517 306.799 472.412 305.946C481.539 297.429 492.02 290.6 503.394 285.758C521.312 278.025 540.906 275.375 560.149 278.082Z" fill="#F2F2F2"/>
<path d="M471.584 321.204H407.668C407.319 315.986 407.35 310.749 407.76 305.535C410.314 273.328 427.501 242.646 453.431 224.067C450.118 236.101 451.82 248.064 455.272 260.075C454.788 260.239 454.305 260.38 453.868 260.567C450.368 261.889 447.155 263.897 444.412 266.478C443.653 267.206 442.847 268.261 443.238 269.27C443.583 270.114 444.619 270.396 445.516 270.583C447.679 271.006 449.842 271.428 451.981 271.827C453.707 272.178 455.433 272.507 457.158 272.859C457.963 273 458.769 273.164 459.574 273.328C459.689 273.609 459.758 273.868 459.873 274.126C463.923 285.502 468.34 296.973 470.411 308.631C470.923 311.557 471.277 314.509 471.469 317.475C471.538 318.718 471.584 319.961 471.584 321.204Z" fill="#F2F2F2"/>
<path d="M124.975 285.715C125.211 297.321 123.663 308.891 120.387 319.994C120.273 320.397 120.135 320.801 119.997 321.204H52.4731C53.4383 316.288 54.9708 311.509 57.0375 306.97C62.6568 294.635 71.8313 284.078 80.8911 273.593C93.3684 259.146 105.548 244.817 107.474 226.029C112.42 233.827 116.367 242.256 119.218 251.104C115.728 252.441 112.526 254.472 109.791 257.082C109.034 257.817 108.231 258.885 108.621 259.905C108.988 260.759 109.997 261.044 110.892 261.233C113.048 261.66 115.204 262.087 117.36 262.491C119.057 262.846 120.777 263.179 122.497 263.511C124.009 270.813 124.839 278.249 124.975 285.715V285.715Z" fill="#F2F2F2"/>
<path d="M181.484 278.082C170.652 284.882 163.767 295.402 158.144 307.178C153.251 308.329 148.734 310.779 145.04 314.286C144.259 315.02 143.456 316.087 143.869 317.105C144.214 317.958 145.246 318.243 146.141 318.432C148.276 318.859 150.456 319.285 152.59 319.688C152.384 320.186 152.177 320.707 151.971 321.204H80.3674C83.6178 316.679 87.2174 312.431 91.1308 308.505C91.98 307.628 92.8521 306.799 93.7471 305.946C102.875 297.429 113.355 290.6 124.729 285.758C142.647 278.025 162.241 275.375 181.484 278.082V278.082Z" fill="#F2F2F2"/>
<path d="M92.2224 321.204H29.6957C29.3542 315.986 29.3844 310.749 29.7858 305.535C32.2841 273.328 49.0974 242.646 74.4637 224.067C71.2226 236.101 72.8881 248.064 76.2643 260.075C75.7917 260.239 75.319 260.38 74.8914 260.567C71.4671 261.889 68.3244 263.897 65.6407 266.478C64.8979 267.206 64.1102 268.261 64.4928 269.27C64.8303 270.114 65.8432 270.396 66.721 270.583C68.8367 271.006 70.9525 271.428 73.0457 271.827C74.7338 272.178 76.4219 272.507 78.1099 272.859C78.8977 273 79.6855 273.164 80.4732 273.328C80.5857 273.609 80.6533 273.868 80.7659 274.126C84.7272 285.502 89.0487 296.973 91.0745 308.631C91.5759 311.557 91.9215 314.509 92.1099 317.475C92.1774 318.718 92.2224 319.961 92.2224 321.204Z" fill="#F2F2F2"/>
<path d="M329.324 293.408L385.9 298.58L386.507 298.637V50.0244C386.305 49.8793 386.103 49.7342 385.9 49.5892C374.109 41.0956 361.354 34.118 347.919 28.8115L345.028 69.8748L344.765 73.6342L341.904 114.357L341.022 126.884L329.428 291.957L329.324 293.408Z" fill="#E6E6E6"/>
<path d="M188.973 44.5152C188.569 44.7811 188.165 45.0469 187.76 45.3254V298.637L188.973 298.523L244.943 293.39L244.839 291.934L233.243 126.288L232.361 113.717L229.501 72.853L229.237 69.0805L226.205 25.8682C213.129 30.5517 200.632 36.8105 188.973 44.5152V44.5152Z" fill="#E6E6E6"/>
<path d="M187.409 46.3013C186.592 46.8453 185.775 47.402 184.971 47.9649V302.895C184.971 309.264 188.637 314.603 193.538 315.963C194.339 316.186 195.165 316.299 195.995 316.298H378.271C379.099 316.299 379.923 316.187 380.721 315.963C382.543 315.442 384.194 314.424 385.499 313.015C387.989 310.275 389.349 306.647 389.295 302.895V52.399C388.287 51.6336 387.274 50.8746 386.249 50.1345C386.046 49.989 385.843 49.8435 385.641 49.6981V302.895C385.642 303.715 385.547 304.533 385.358 305.33C384.492 309.094 381.636 311.851 378.271 311.851H195.995C191.929 311.851 188.625 307.835 188.625 302.895V45.4917C188.22 45.7574 187.814 46.023 187.409 46.3013Z" fill="#E6E6E6"/>
<path d="M387.901 70.0215H186.366V72.965H387.901V70.0215Z" fill="#E6E6E6"/>
<path d="M325.837 20.8601C324.678 20.5481 323.52 20.2552 322.35 19.9814V123.006H325.837V20.8601Z" fill="#E6E6E6"/>
<path d="M251.917 19C250.52 19.2349 249.123 19.4762 247.733 19.7365V123.005H251.917V19Z" fill="#E6E6E6"/>
<path d="M147.314 309.914C147.313 312.104 147.716 314.273 148.502 316.304C148.804 317.091 149.165 317.853 149.58 318.583C150.117 319.534 150.74 320.43 151.44 321.259C152.988 323.092 154.894 324.56 157.031 325.566C159.168 326.572 161.487 327.092 163.833 327.091H404.855C409.236 327.091 413.438 325.282 416.536 322.062C419.634 318.842 421.375 314.475 421.375 309.921C421.375 305.367 419.634 300.999 416.536 297.779C413.438 294.559 409.236 292.75 404.855 292.75H163.833C159.454 292.754 155.256 294.564 152.159 297.782C149.062 301 147.319 305.363 147.314 309.914V309.914Z" fill="#E6E6E6"/>
<path d="M186.365 126.93L386.507 126.93V114.175L186.365 114.175V126.93Z" fill="#E6E6E6"/>
<path d="M295.85 117.118H278.417C278.417 115.297 279.138 113.55 280.423 112.262C281.707 110.974 283.449 110.25 285.266 110.25H289.001C289.901 110.25 290.791 110.428 291.622 110.773C292.453 111.118 293.208 111.624 293.844 112.262C294.48 112.899 294.985 113.656 295.329 114.49C295.673 115.323 295.85 116.216 295.85 117.118V117.118H295.85Z" fill="#E6E6E6"/>
<path d="M19 319.242C24.3432 325.87 30.1225 332.1 36.2956 337.884H532.393C538.566 332.1 544.345 325.87 549.688 319.242H19Z" fill="#3F3D56"/>
<path d="M262.377 257.674V323.166H307.008V257.674C307.009 257.203 306.863 256.745 306.591 256.365C306.319 255.986 305.937 255.706 305.499 255.567C305.292 255.497 305.076 255.463 304.859 255.465H264.533C264.25 255.464 263.97 255.521 263.709 255.632C263.447 255.743 263.21 255.905 263.01 256.11C262.809 256.316 262.651 256.559 262.542 256.828C262.434 257.096 262.378 257.384 262.377 257.674V257.674ZM279.795 280.178C279.807 278.887 280.314 277.653 281.206 276.744C282.098 275.836 283.303 275.326 284.559 275.326C285.815 275.326 287.02 275.836 287.912 276.744C288.805 277.653 289.312 278.887 289.324 280.178V287.777C289.317 289.071 288.812 290.311 287.92 291.224C287.027 292.137 285.819 292.65 284.559 292.65C283.3 292.65 282.092 292.137 281.199 291.224C280.306 290.311 279.801 289.071 279.795 287.777V280.178Z" fill="#2F2E41"/>
<path d="M262.377 320.223V326.785C262.378 327.125 262.504 327.451 262.727 327.692C262.95 327.933 263.253 328.07 263.569 328.073H305.817C306.133 328.071 306.436 327.935 306.66 327.693C306.883 327.452 307.008 327.126 307.008 326.785V320.223H262.377Z" fill="#3F3D56"/>
<path d="M194.036 160.119V279.178C194.038 280.696 194.618 282.15 195.649 283.223C196.68 284.296 198.079 284.899 199.537 284.901H369.151C370.609 284.899 372.008 284.296 373.039 283.223C374.071 282.15 374.651 280.696 374.652 279.178V160.119C374.648 158.603 374.067 157.15 373.036 156.079C372.005 155.008 370.608 154.405 369.151 154.403H199.537C198.08 154.405 196.683 155.008 195.652 156.079C194.621 157.151 194.04 158.603 194.036 160.119V160.119Z" fill="#3F3D56"/>
<path d="M196.826 161.378V276.951C196.827 277.758 197.14 278.531 197.697 279.102C198.253 279.672 199.007 279.993 199.794 279.995H368.196C368.983 279.993 369.738 279.672 370.294 279.102C370.85 278.531 371.164 277.758 371.165 276.951V161.378C371.165 160.571 370.852 159.796 370.296 159.224C369.739 158.652 368.984 158.33 368.196 158.328H199.794C199.007 158.33 198.252 158.652 197.695 159.224C197.139 159.796 196.826 160.571 196.826 161.378V161.378Z" fill="#6C63FF"/>
<path d="M231.408 330.287C231.578 330.516 231.795 330.7 232.041 330.826C232.288 330.953 232.558 331.017 232.831 331.016H332.376C332.648 331.016 332.917 330.95 333.162 330.825C333.408 330.699 333.624 330.517 333.796 330.29C333.967 330.064 334.09 329.8 334.154 329.517C334.218 329.233 334.222 328.938 334.166 328.653L332.621 320.797C332.557 320.477 332.419 320.179 332.22 319.93C332.021 319.681 331.766 319.49 331.48 319.373C331.273 319.286 331.053 319.241 330.83 319.242H234.37C234.147 319.241 233.927 319.286 233.72 319.373C233.434 319.49 233.18 319.681 232.981 319.93C232.781 320.179 232.643 320.477 232.579 320.797L231.034 328.653C230.979 328.938 230.984 329.233 231.049 329.515C231.114 329.798 231.236 330.062 231.408 330.287Z" fill="#2F2E41"/>
<path d="M328.269 322.185H331.075C331.263 322.185 331.416 322.042 331.416 321.866V320.542C331.416 320.366 331.263 320.223 331.075 320.223H328.269C328.081 320.223 327.929 320.366 327.929 320.542V321.866C327.929 322.042 328.081 322.185 328.269 322.185Z" fill="#3F3D56"/>
<path d="M321.993 322.185H324.799C324.987 322.185 325.139 322.042 325.139 321.866V320.542C325.139 320.366 324.987 320.223 324.799 320.223H321.993C321.805 320.223 321.653 320.366 321.653 320.542V321.866C321.653 322.042 321.805 322.185 321.993 322.185Z" fill="#3F3D56"/>
<path d="M315.717 322.185H318.523C318.711 322.185 318.863 322.042 318.863 321.866V320.542C318.863 320.366 318.711 320.223 318.523 320.223H315.717C315.529 320.223 315.376 320.366 315.376 320.542V321.866C315.376 322.042 315.529 322.185 315.717 322.185Z" fill="#3F3D56"/>
<path d="M309.441 322.185H312.247C312.435 322.185 312.587 322.042 312.587 321.866V320.542C312.587 320.366 312.435 320.223 312.247 320.223H309.441C309.253 320.223 309.1 320.366 309.1 320.542V321.866C309.1 322.042 309.253 322.185 309.441 322.185Z" fill="#3F3D56"/>
<path d="M303.164 322.185H305.97C306.158 322.185 306.311 322.042 306.311 321.866V320.542C306.311 320.366 306.158 320.223 305.97 320.223H303.164C302.976 320.223 302.824 320.366 302.824 320.542V321.866C302.824 322.042 302.976 322.185 303.164 322.185Z" fill="#3F3D56"/>
<path d="M296.888 322.185H299.694C299.882 322.185 300.035 322.042 300.035 321.866V320.542C300.035 320.366 299.882 320.223 299.694 320.223H296.888C296.7 320.223 296.548 320.366 296.548 320.542V321.866C296.548 322.042 296.7 322.185 296.888 322.185Z" fill="#3F3D56"/>
<path d="M291.241 322.185H293.486C293.636 322.185 293.758 322.042 293.758 321.866V320.542C293.758 320.366 293.636 320.223 293.486 320.223H291.241C291.091 320.223 290.969 320.366 290.969 320.542V321.866C290.969 322.042 291.091 322.185 291.241 322.185Z" fill="#3F3D56"/>
<path d="M284.965 322.185H287.21C287.36 322.185 287.482 322.042 287.482 321.866V320.542C287.482 320.366 287.36 320.223 287.21 320.223H284.965C284.815 320.223 284.693 320.366 284.693 320.542V321.866C284.693 322.042 284.815 322.185 284.965 322.185Z" fill="#3F3D56"/>
<path d="M278.689 322.185H280.934C281.084 322.185 281.206 322.042 281.206 321.866V320.542C281.206 320.366 281.084 320.223 280.934 320.223H278.689C278.538 320.223 278.417 320.366 278.417 320.542V321.866C278.417 322.042 278.538 322.185 278.689 322.185Z" fill="#3F3D56"/>
<path d="M272.413 322.185H274.657C274.808 322.185 274.93 322.042 274.93 321.866V320.542C274.93 320.366 274.808 320.223 274.657 320.223H272.413C272.262 320.223 272.14 320.366 272.14 320.542V321.866C272.14 322.042 272.262 322.185 272.413 322.185Z" fill="#3F3D56"/>
<path d="M266.136 322.185H268.381C268.532 322.185 268.654 322.042 268.654 321.866V320.542C268.654 320.366 268.532 320.223 268.381 320.223H266.136C265.986 320.223 265.864 320.366 265.864 320.542V321.866C265.864 322.042 265.986 322.185 266.136 322.185Z" fill="#3F3D56"/>
<path d="M259.86 322.185H262.105C262.255 322.185 262.377 322.042 262.377 321.866V320.542C262.377 320.366 262.255 320.223 262.105 320.223H259.86C259.71 320.223 259.588 320.366 259.588 320.542V321.866C259.588 322.042 259.71 322.185 259.86 322.185Z" fill="#3F3D56"/>
<path d="M254.281 322.185H256.526C256.677 322.185 256.798 322.042 256.798 321.866V320.542C256.798 320.366 256.677 320.223 256.526 320.223H254.281C254.131 320.223 254.009 320.366 254.009 320.542V321.866C254.009 322.042 254.131 322.185 254.281 322.185Z" fill="#3F3D56"/>
<path d="M248.005 322.185H250.25C250.4 322.185 250.522 322.042 250.522 321.866V320.542C250.522 320.366 250.4 320.223 250.25 320.223H248.005C247.855 320.223 247.733 320.366 247.733 320.542V321.866C247.733 322.042 247.855 322.185 248.005 322.185Z" fill="#3F3D56"/>
<path d="M241.797 322.185H244.603C244.791 322.185 244.943 322.042 244.943 321.866V320.542C244.943 320.366 244.791 320.223 244.603 320.223H241.797C241.609 320.223 241.457 320.366 241.457 320.542V321.866C241.457 322.042 241.609 322.185 241.797 322.185Z" fill="#3F3D56"/>
<path d="M235.521 322.185H238.327C238.515 322.185 238.667 322.042 238.667 321.866V320.542C238.667 320.366 238.515 320.223 238.327 320.223H235.521C235.333 320.223 235.18 320.366 235.18 320.542V321.866C235.18 322.042 235.333 322.185 235.521 322.185Z" fill="#3F3D56"/>
<path d="M328.269 325.129H331.075C331.263 325.129 331.416 324.986 331.416 324.81V323.486C331.416 323.31 331.263 323.167 331.075 323.167H328.269C328.081 323.167 327.929 323.31 327.929 323.486V324.81C327.929 324.986 328.081 325.129 328.269 325.129Z" fill="#3F3D56"/>
<path d="M321.993 325.129H324.799C324.987 325.129 325.139 324.986 325.139 324.81V323.486C325.139 323.31 324.987 323.167 324.799 323.167H321.993C321.805 323.167 321.653 323.31 321.653 323.486V324.81C321.653 324.986 321.805 325.129 321.993 325.129Z" fill="#3F3D56"/>
<path d="M315.717 325.129H318.523C318.711 325.129 318.863 324.986 318.863 324.81V323.486C318.863 323.31 318.711 323.167 318.523 323.167H315.717C315.529 323.167 315.376 323.31 315.376 323.486V324.81C315.376 324.986 315.529 325.129 315.717 325.129Z" fill="#3F3D56"/>
<path d="M309.441 325.129H312.247C312.435 325.129 312.587 324.986 312.587 324.81V323.486C312.587 323.31 312.435 323.167 312.247 323.167H309.441C309.253 323.167 309.1 323.31 309.1 323.486V324.81C309.1 324.986 309.253 325.129 309.441 325.129Z" fill="#3F3D56"/>
<path d="M303.164 325.129H305.97C306.158 325.129 306.311 324.986 306.311 324.81V323.486C306.311 323.31 306.158 323.167 305.97 323.167H303.164C302.976 323.167 302.824 323.31 302.824 323.486V324.81C302.824 324.986 302.976 325.129 303.164 325.129Z" fill="#3F3D56"/>
<path d="M296.888 325.129H299.694C299.882 325.129 300.035 324.986 300.035 324.81V323.486C300.035 323.31 299.882 323.167 299.694 323.167H296.888C296.7 323.167 296.548 323.31 296.548 323.486V324.81C296.548 324.986 296.7 325.129 296.888 325.129Z" fill="#3F3D56"/>
<path d="M291.241 325.129H293.486C293.636 325.129 293.758 324.986 293.758 324.81V323.486C293.758 323.31 293.636 323.167 293.486 323.167H291.241C291.091 323.167 290.969 323.31 290.969 323.486V324.81C290.969 324.986 291.091 325.129 291.241 325.129Z" fill="#3F3D56"/>
<path d="M284.965 325.129H287.21C287.36 325.129 287.482 324.986 287.482 324.81V323.486C287.482 323.31 287.36 323.167 287.21 323.167H284.965C284.815 323.167 284.693 323.31 284.693 323.486V324.81C284.693 324.986 284.815 325.129 284.965 325.129Z" fill="#3F3D56"/>
<path d="M278.689 325.129H280.934C281.084 325.129 281.206 324.986 281.206 324.81V323.486C281.206 323.31 281.084 323.167 280.934 323.167H278.689C278.538 323.167 278.417 323.31 278.417 323.486V324.81C278.417 324.986 278.538 325.129 278.689 325.129Z" fill="#3F3D56"/>
<path d="M272.413 325.129H274.657C274.808 325.129 274.93 324.986 274.93 324.81V323.486C274.93 323.31 274.808 323.167 274.657 323.167H272.413C272.262 323.167 272.14 323.31 272.14 323.486V324.81C272.14 324.986 272.262 325.129 272.413 325.129Z" fill="#3F3D56"/>
<path d="M266.136 325.129H268.381C268.532 325.129 268.654 324.986 268.654 324.81V323.486C268.654 323.31 268.532 323.167 268.381 323.167H266.136C265.986 323.167 265.864 323.31 265.864 323.486V324.81C265.864 324.986 265.986 325.129 266.136 325.129Z" fill="#3F3D56"/>
<path d="M259.86 325.129H262.105C262.255 325.129 262.377 324.986 262.377 324.81V323.486C262.377 323.31 262.255 323.167 262.105 323.167H259.86C259.71 323.167 259.588 323.31 259.588 323.486V324.81C259.588 324.986 259.71 325.129 259.86 325.129Z" fill="#3F3D56"/>
<path d="M254.281 325.129H256.526C256.677 325.129 256.798 324.986 256.798 324.81V323.486C256.798 323.31 256.677 323.167 256.526 323.167H254.281C254.131 323.167 254.009 323.31 254.009 323.486V324.81C254.009 324.986 254.131 325.129 254.281 325.129Z" fill="#3F3D56"/>
<path d="M248.005 325.129H250.25C250.4 325.129 250.522 324.986 250.522 324.81V323.486C250.522 323.31 250.4 323.167 250.25 323.167H248.005C247.855 323.167 247.733 323.31 247.733 323.486V324.81C247.733 324.986 247.855 325.129 248.005 325.129Z" fill="#3F3D56"/>
<path d="M241.797 325.129H244.603C244.791 325.129 244.943 324.986 244.943 324.81V323.486C244.943 323.31 244.791 323.167 244.603 323.167H241.797C241.609 323.167 241.457 323.31 241.457 323.486V324.81C241.457 324.986 241.609 325.129 241.797 325.129Z" fill="#3F3D56"/>
<path d="M235.521 325.129H238.327C238.515 325.129 238.667 324.986 238.667 324.81V323.486C238.667 323.31 238.515 323.167 238.327 323.167H235.521C235.333 323.167 235.18 323.31 235.18 323.486V324.81C235.18 324.986 235.333 325.129 235.521 325.129Z" fill="#3F3D56"/>
<path d="M277.32 329.054H301.131C301.296 329.054 301.429 328.911 301.429 328.734V327.411C301.429 327.234 301.296 327.091 301.131 327.091H277.32C277.155 327.091 277.022 327.234 277.022 327.411V328.734C277.022 328.911 277.155 329.054 277.32 329.054Z" fill="#3F3D56"/>
<path d="M208.595 174.027H365.672C365.836 174.024 365.991 173.971 366.105 173.879C366.22 173.787 366.283 173.664 366.283 173.536C366.283 173.408 366.22 173.285 366.105 173.193C365.991 173.101 365.836 173.048 365.672 173.045H208.595C208.431 173.048 208.276 173.101 208.162 173.193C208.048 173.285 207.984 173.408 207.984 173.536C207.984 173.664 208.048 173.787 208.162 173.879C208.276 173.971 208.431 174.024 208.595 174.027V174.027Z" fill="#3F3D56"/>
<path d="M355.126 170.102C357.051 170.102 358.613 168.345 358.613 166.177C358.613 164.01 357.051 162.252 355.126 162.252C353.2 162.252 351.639 164.01 351.639 166.177C351.639 168.345 353.2 170.102 355.126 170.102Z" fill="#3F3D56"/>
<path d="M342.225 170.102C344.343 170.102 346.06 168.345 346.06 166.177C346.06 164.01 344.343 162.252 342.225 162.252C340.106 162.252 338.389 164.01 338.389 166.177C338.389 168.345 340.106 170.102 342.225 170.102Z" fill="#3F3D56"/>
<path d="M329.672 170.102C331.79 170.102 333.508 168.345 333.508 166.177C333.508 164.01 331.79 162.252 329.672 162.252C327.554 162.252 325.837 164.01 325.837 166.177C325.837 168.345 327.554 170.102 329.672 170.102Z" fill="#3F3D56"/>
<path d="M215.654 163.727C215.654 163.791 215.671 163.854 215.705 163.913C215.739 163.972 215.789 164.026 215.852 164.071C215.915 164.116 215.991 164.153 216.073 164.177C216.156 164.202 216.245 164.215 216.334 164.215H225.441C225.621 164.212 225.793 164.159 225.919 164.067C226.044 163.976 226.115 163.853 226.115 163.724C226.115 163.596 226.044 163.473 225.919 163.382C225.793 163.29 225.621 163.237 225.441 163.234H216.334C216.153 163.235 215.979 163.288 215.852 163.38C215.724 163.473 215.653 163.597 215.654 163.727V163.727Z" fill="#3F3D56"/>
<path d="M215.654 166.182C215.654 166.31 215.671 166.436 215.705 166.554C215.739 166.673 215.789 166.78 215.852 166.871C215.915 166.961 215.99 167.034 216.073 167.083C216.156 167.132 216.245 167.158 216.334 167.159H225.441C225.621 167.153 225.792 167.047 225.918 166.864C226.044 166.68 226.115 166.434 226.115 166.177C226.115 165.921 226.044 165.675 225.918 165.491C225.792 165.308 225.621 165.202 225.441 165.196H216.334C216.153 165.199 215.979 165.305 215.852 165.489C215.724 165.674 215.653 165.923 215.654 166.182V166.182Z" fill="#3F3D56"/>
<path d="M215.654 169.116C215.653 169.375 215.724 169.624 215.852 169.809C215.979 169.993 216.153 170.099 216.334 170.102H225.441C225.621 170.096 225.793 169.99 225.919 169.807C226.044 169.623 226.115 169.377 226.115 169.121C226.115 168.865 226.044 168.618 225.919 168.435C225.793 168.252 225.621 168.146 225.441 168.14H216.334C216.245 168.14 216.156 168.166 216.073 168.215C215.991 168.265 215.915 168.337 215.852 168.428C215.789 168.518 215.739 168.626 215.705 168.744C215.671 168.862 215.654 168.989 215.654 169.116V169.116Z" fill="#3F3D56"/>
<path d="M218.711 188.745H215.387C214.379 188.745 213.562 189.623 213.562 190.707C213.562 191.791 214.379 192.669 215.387 192.669H218.711C219.719 192.669 220.536 191.791 220.536 190.707C220.536 189.623 219.719 188.745 218.711 188.745Z" fill="#E6E6E6"/>
<path d="M255.671 188.745H252.347C251.339 188.745 250.522 189.623 250.522 190.707C250.522 191.791 251.339 192.669 252.347 192.669H255.671C256.679 192.669 257.496 191.791 257.496 190.707C257.496 189.623 256.679 188.745 255.671 188.745Z" fill="#E6E6E6"/>
<path d="M265.949 188.745H262.293C261.184 188.745 260.285 189.623 260.285 190.707C260.285 191.791 261.184 192.669 262.293 192.669H265.949C267.058 192.669 267.956 191.791 267.956 190.707C267.956 189.623 267.058 188.745 265.949 188.745Z" fill="#E6E6E6"/>
<path d="M245.953 188.745H225.803C224.82 188.745 224.023 189.623 224.023 190.707C224.023 191.791 224.82 192.669 225.803 192.669H245.953C246.936 192.669 247.733 191.791 247.733 190.707C247.733 189.623 246.936 188.745 245.953 188.745Z" fill="#E6E6E6"/>
<path d="M294.123 188.745H274.565C273.611 188.745 272.838 189.623 272.838 190.707C272.838 191.791 273.611 192.669 274.565 192.669H294.123C295.077 192.669 295.85 191.791 295.85 190.707C295.85 189.623 295.077 188.745 294.123 188.745Z" fill="#E6E6E6"/>
<path d="M228.142 197.575H225.483C224.676 197.575 224.023 198.454 224.023 199.538C224.023 200.621 224.676 201.5 225.483 201.5H228.142C228.948 201.5 229.602 200.621 229.602 199.538C229.602 198.454 228.948 197.575 228.142 197.575Z" fill="#E6E6E6"/>
<path d="M264.737 197.575H261.413C260.405 197.575 259.588 198.454 259.588 199.538C259.588 200.621 260.405 201.5 261.413 201.5H264.737C265.745 201.5 266.562 200.621 266.562 199.538C266.562 198.454 265.745 197.575 264.737 197.575Z" fill="#E6E6E6"/>
<path d="M275.894 197.575H272.57C271.563 197.575 270.746 198.454 270.746 199.538C270.746 200.621 271.563 201.5 272.57 201.5H275.894C276.902 201.5 277.719 200.621 277.719 199.538C277.719 198.454 276.902 197.575 275.894 197.575Z" fill="#E6E6E6"/>
<path d="M255.071 196.594H235.513C234.559 196.594 233.786 197.692 233.786 199.047C233.786 200.402 234.559 201.5 235.513 201.5H255.071C256.025 201.5 256.799 200.402 256.799 199.047C256.799 197.692 256.025 196.594 255.071 196.594Z" fill="#E6E6E6"/>
<path d="M304.531 196.594H284.381C283.398 196.594 282.601 197.692 282.601 199.047C282.601 200.402 283.398 201.5 284.381 201.5H304.531C305.514 201.5 306.311 200.402 306.311 199.047C306.311 197.692 305.514 196.594 304.531 196.594Z" fill="#E6E6E6"/>
<path d="M237.722 205.425H234.731C233.824 205.425 233.088 206.303 233.088 207.387C233.088 208.471 233.824 209.35 234.731 209.35H237.722C238.629 209.35 239.365 208.471 239.365 207.387C239.365 206.303 238.629 205.425 237.722 205.425Z" fill="#E6E6E6"/>
<path d="M275.197 205.425H271.873C270.865 205.425 270.048 206.303 270.048 207.387C270.048 208.471 270.865 209.35 271.873 209.35H275.197C276.205 209.35 277.022 208.471 277.022 207.387C277.022 206.303 276.205 205.425 275.197 205.425Z" fill="#E6E6E6"/>
<path d="M285.657 205.425H282.333C281.326 205.425 280.509 206.303 280.509 207.387C280.509 208.471 281.326 209.35 282.333 209.35H285.657C286.665 209.35 287.482 208.471 287.482 207.387C287.482 206.303 286.665 205.425 285.657 205.425Z" fill="#E6E6E6"/>
<path d="M264.782 205.425H244.631C243.648 205.425 242.851 206.303 242.851 207.387C242.851 208.471 243.648 209.35 244.631 209.35H264.782C265.765 209.35 266.561 208.471 266.561 207.387C266.561 206.303 265.765 205.425 264.782 205.425Z" fill="#E6E6E6"/>
<path d="M314.939 205.425H294.196C293.184 205.425 292.364 206.303 292.364 207.387C292.364 208.471 293.184 209.35 294.196 209.35H314.939C315.951 209.35 316.771 208.471 316.771 207.387C316.771 206.303 315.951 205.425 314.939 205.425Z" fill="#E6E6E6"/>
<path d="M248 213.274H244.676C243.668 213.274 242.851 214.373 242.851 215.727C242.851 217.082 243.668 218.18 244.676 218.18H248C249.008 218.18 249.825 217.082 249.825 215.727C249.825 214.373 249.008 213.274 248 213.274Z" fill="#E6E6E6"/>
<path d="M284.96 213.274H281.636C280.628 213.274 279.811 214.373 279.811 215.727C279.811 217.082 280.628 218.18 281.636 218.18H284.96C285.968 218.18 286.785 217.082 286.785 215.727C286.785 214.373 285.968 213.274 284.96 213.274Z" fill="#E6E6E6"/>
<path d="M295.088 213.274H292.429C291.623 213.274 290.969 214.373 290.969 215.727C290.969 217.082 291.623 218.18 292.429 218.18H295.088C295.894 218.18 296.548 217.082 296.548 215.727C296.548 214.373 295.894 213.274 295.088 213.274Z" fill="#E6E6E6"/>
<path d="M275.242 213.274H255.092C254.109 213.274 253.312 214.153 253.312 215.237C253.312 216.321 254.109 217.199 255.092 217.199H275.242C276.225 217.199 277.022 216.321 277.022 215.237C277.022 214.153 276.225 213.274 275.242 213.274Z" fill="#E6E6E6"/>
<path d="M255.671 246.635H252.347C251.339 246.635 250.522 247.513 250.522 248.597C250.522 249.681 251.339 250.559 252.347 250.559H255.671C256.679 250.559 257.496 249.681 257.496 248.597C257.496 247.513 256.679 246.635 255.671 246.635Z" fill="#E6E6E6"/>
<path d="M265.949 246.635H262.293C261.184 246.635 260.285 247.513 260.285 248.597C260.285 249.681 261.184 250.559 262.293 250.559H265.949C267.058 250.559 267.956 249.681 267.956 248.597C267.956 247.513 267.058 246.635 265.949 246.635Z" fill="#E6E6E6"/>
<path d="M294.123 247.615H274.565C273.611 247.615 272.838 248.274 272.838 249.087C272.838 249.9 273.611 250.559 274.565 250.559H294.123C295.077 250.559 295.85 249.9 295.85 249.087C295.85 248.274 295.077 247.615 294.123 247.615Z" fill="#E6E6E6"/>
<path d="M218.711 246.635H215.387C214.379 246.635 213.562 247.513 213.562 248.597C213.562 249.681 214.379 250.559 215.387 250.559H218.711C219.719 250.559 220.536 249.681 220.536 248.597C220.536 247.513 219.719 246.635 218.711 246.635Z" fill="#E6E6E6"/>
<path d="M245.953 247.615H225.803C224.82 247.615 224.023 248.274 224.023 249.087C224.023 249.9 224.82 250.559 225.803 250.559H245.953C246.936 250.559 247.733 249.9 247.733 249.087C247.733 248.274 246.936 247.615 245.953 247.615Z" fill="#E6E6E6"/>
<path d="M228.142 238.785H225.483C224.676 238.785 224.023 239.664 224.023 240.748C224.023 241.831 224.676 242.71 225.483 242.71H228.142C228.948 242.71 229.602 241.831 229.602 240.748C229.602 239.664 228.948 238.785 228.142 238.785Z" fill="#E6E6E6"/>
<path d="M264.737 238.785H261.413C260.405 238.785 259.588 239.664 259.588 240.748C259.588 241.831 260.405 242.71 261.413 242.71H264.737C265.745 242.71 266.562 241.831 266.562 240.748C266.562 239.664 265.745 238.785 264.737 238.785Z" fill="#E6E6E6"/>
<path d="M275.894 238.785H272.57C271.563 238.785 270.746 239.664 270.746 240.748C270.746 241.831 271.563 242.71 272.57 242.71H275.894C276.902 242.71 277.719 241.831 277.719 240.748C277.719 239.664 276.902 238.785 275.894 238.785Z" fill="#E6E6E6"/>
<path d="M255.071 238.785H235.513C234.559 238.785 233.786 239.664 233.786 240.748C233.786 241.831 234.559 242.71 235.513 242.71H255.071C256.025 242.71 256.799 241.831 256.799 240.748C256.799 239.664 256.025 238.785 255.071 238.785Z" fill="#E6E6E6"/>
<path d="M237.722 230.936H234.731C233.824 230.936 233.088 231.594 233.088 232.407C233.088 233.22 233.824 233.879 234.731 233.879H237.722C238.629 233.879 239.365 233.22 239.365 232.407C239.365 231.594 238.629 230.936 237.722 230.936Z" fill="#E6E6E6"/>
<path d="M275.197 230.936H271.873C270.865 230.936 270.048 231.594 270.048 232.407C270.048 233.22 270.865 233.879 271.873 233.879H275.197C276.205 233.879 277.022 233.22 277.022 232.407C277.022 231.594 276.205 230.936 275.197 230.936Z" fill="#E6E6E6"/>
<path d="M285.657 230.936H282.333C281.326 230.936 280.509 231.594 280.509 232.407C280.509 233.22 281.326 233.879 282.333 233.879H285.657C286.665 233.879 287.482 233.22 287.482 232.407C287.482 231.594 286.665 230.936 285.657 230.936Z" fill="#E6E6E6"/>
<path d="M264.782 230.936H244.631C243.648 230.936 242.851 231.814 242.851 232.898C242.851 233.982 243.648 234.86 244.631 234.86H264.782C265.765 234.86 266.561 233.982 266.561 232.898C266.561 231.814 265.765 230.936 264.782 230.936Z" fill="#E6E6E6"/>
<path d="M248 222.105H244.676C243.668 222.105 242.851 222.984 242.851 224.067C242.851 225.151 243.668 226.03 244.676 226.03H248C249.008 226.03 249.825 225.151 249.825 224.067C249.825 222.984 249.008 222.105 248 222.105Z" fill="#E6E6E6"/>
<path d="M284.96 222.105H281.636C280.628 222.105 279.811 222.984 279.811 224.067C279.811 225.151 280.628 226.03 281.636 226.03H284.96C285.968 226.03 286.785 225.151 286.785 224.067C286.785 222.984 285.968 222.105 284.96 222.105Z" fill="#E6E6E6"/>
<path d="M295.088 222.105H292.429C291.623 222.105 290.969 222.984 290.969 224.067C290.969 225.151 291.623 226.03 292.429 226.03H295.088C295.894 226.03 296.548 225.151 296.548 224.067C296.548 222.984 295.894 222.105 295.088 222.105Z" fill="#E6E6E6"/>
<path d="M275.242 222.105H255.092C254.109 222.105 253.312 222.984 253.312 224.067C253.312 225.151 254.109 226.03 255.092 226.03H275.242C276.225 226.03 277.022 225.151 277.022 224.067C277.022 222.984 276.225 222.105 275.242 222.105Z" fill="#E6E6E6"/>
<path d="M234.483 364.83C234.348 364.9 234.212 364.969 234.077 365.033C233.22 365.469 232.358 365.899 231.489 366.322C228.889 367.593 226.256 368.801 223.591 369.945C216.577 372.956 209.38 375.496 202.046 377.551C200.814 369.667 199.618 351.072 198.473 337.397C198.257 334.824 198.041 332.427 197.826 330.309C197.621 327.529 197.232 324.766 196.661 322.039C196.605 321.826 196.525 321.62 196.421 321.426C196.538 322.52 196.661 325.782 196.778 330.309C196.84 332.427 196.895 334.824 196.957 337.397C197.247 350.56 197.548 368.472 197.85 378.67C196.994 378.885 196.131 379.1 195.269 379.302C194.727 379.435 194.178 379.562 193.63 379.682C192.965 379.834 192.299 379.985 191.634 380.124C190.938 380.276 190.242 380.422 189.545 380.561C178.169 382.854 166.601 384.006 155.007 384C154.237 384 153.473 383.994 152.703 383.987C152.469 383.987 152.235 383.981 151.995 383.975C151.317 383.962 150.615 383.949 149.9 383.931C136.199 383.542 122.587 381.528 109.336 377.93L109.872 337.397L109.965 330.309L110.002 327.622C109.697 328.487 109.514 329.392 109.46 330.309C109.244 332.035 109.022 334.482 108.8 337.397C107.956 348.626 107.088 366.74 106.188 377.045C95.5359 373.935 87.7485 371.096 78.0142 366.101C77.6384 365.911 77.2564 365.715 76.8806 365.519C76.9484 365.033 77.0223 364.546 77.0901 364.046C78.1929 356.181 76.8929 345.945 78.1128 337.397C79.0431 330.802 80.0042 324.467 80.9715 319.093C82.142 312.625 83.3311 307.542 84.5078 305.07C85.8632 302.218 87.2187 299.411 88.5309 296.724C89.0978 295.567 89.6543 294.431 90.2005 293.316C90.4963 292.716 90.792 292.121 91.0815 291.54C92.4 288.891 93.6445 286.444 94.7843 284.275C95.5852 282.751 96.3245 281.373 97.0022 280.165C97.797 278.743 98.4993 277.567 99.0784 276.675C103.356 270.021 109.721 265.067 117.118 262.633L117.302 262.583L117.481 262.658L117.684 262.753L129.427 258.346L134.67 245.392L161.599 243.691L165.949 247.086L168.173 248.825L170.545 250.677L174.907 254.085L176.145 254.477L177.987 255.059L190.587 259.029L190.716 258.972L190.901 259.023C197.632 261.234 203.524 265.544 207.757 271.352C208.176 271.908 208.564 272.484 208.94 273.065C209.963 274.621 211.343 277.08 212.969 280.165C213.641 281.436 214.349 282.815 215.095 284.275C215.544 285.154 219.426 297.584 223.202 310.28C226.733 322.166 230.17 334.286 230.62 337.397C230.7 337.972 230.787 338.554 230.867 339.129C231.378 342.727 231.883 346.349 232.37 349.884C233.091 355.125 233.793 360.183 234.465 364.704C234.471 364.748 234.477 364.786 234.483 364.83Z" fill="#3F3D56"/>
<path opacity="0.2" d="M205.891 319.242L200.707 297.656L196.129 316.282L205.891 319.242Z" fill="black"/>
<path d="M29.0547 319.408C29.3209 320.23 29.826 320.942 30.4973 321.441C31.1686 321.94 31.9717 322.2 32.7912 322.185L48.8006 321.748C49.6261 321.731 50.4243 321.431 51.0757 320.892C51.7272 320.354 52.197 319.606 52.4149 318.761L54.6804 293.056C55.4842 293.442 56.3592 293.633 57.2415 293.614C58.7895 293.573 60.2586 292.881 61.3257 291.69C62.3928 290.5 62.9705 288.908 62.9316 287.265C62.8928 285.623 62.2406 284.064 61.1185 282.932C59.9964 281.799 58.4964 281.186 56.9485 281.228C56.5958 281.226 56.2441 281.265 55.8993 281.343C55.5242 280.913 55.0684 280.57 54.5611 280.338C54.0538 280.106 53.5063 279.989 52.9538 279.995L28.3277 280.67C28.1234 280.678 27.9201 280.704 27.7202 280.75C27.1802 280.856 26.6679 281.085 26.218 281.419C25.7681 281.754 25.3909 282.187 25.1119 282.689C24.8329 283.191 24.6585 283.751 24.6004 284.33C24.5423 284.91 24.602 285.496 24.7753 286.049L29.0547 319.408ZM55.145 291.31L56.7571 285.185C56.9405 284.477 56.9448 283.731 56.7694 283.021C56.8477 283.021 56.9167 282.981 56.9949 282.981C58.1002 282.957 59.1696 283.399 59.9684 284.21C60.7672 285.021 61.2303 286.135 61.2562 287.308C61.2821 288.481 60.8686 289.616 60.1065 290.466C59.3443 291.316 58.2956 291.811 57.1904 291.841C56.4758 291.865 55.7686 291.681 55.145 291.31V291.31Z" fill="#2F2E41"/>
<path d="M27.3683 280.63C27.9098 283.308 33.9985 285.191 41.3197 284.864C48.052 284.595 53.5567 282.551 54.5652 280.128C54.1919 280.033 53.8038 279.988 53.4147 279.995L27.9953 280.563C27.7844 280.57 27.5747 280.592 27.3683 280.63V280.63Z" fill="#3F3D56"/>
<path d="M42.5227 305.495C42.5549 305.486 42.5854 305.47 42.6132 305.45L46.0611 302.897C46.1028 302.866 46.137 302.824 46.1607 302.775C46.1844 302.725 46.1969 302.67 46.1969 302.613C46.1969 302.557 46.1845 302.502 46.1608 302.452C46.1372 302.403 46.1029 302.361 46.0613 302.33L42.4775 299.674C42.4446 299.65 42.4078 299.633 42.369 299.624C42.3303 299.616 42.2905 299.616 42.2519 299.625C42.2132 299.634 42.1766 299.652 42.1439 299.677C42.1113 299.702 42.0834 299.734 42.0618 299.771C42.0402 299.809 42.0253 299.85 42.018 299.894C42.0106 299.938 42.011 299.983 42.0192 300.027C42.0273 300.07 42.0429 300.112 42.0652 300.149C42.0876 300.185 42.1161 300.217 42.1491 300.241L45.35 302.613L42.2851 304.883C42.2258 304.927 42.1821 304.993 42.1619 305.07C42.1417 305.147 42.1463 305.229 42.1748 305.303C42.2033 305.376 42.2539 305.436 42.3176 305.471C42.3813 305.506 42.4539 305.515 42.5227 305.495H42.5227Z" fill="#6C63FF"/>
<path d="M36.245 305.495C36.2933 305.478 36.3369 305.443 36.3701 305.392C36.4034 305.342 36.4248 305.279 36.4315 305.212C36.4383 305.145 36.4302 305.077 36.4082 305.017C36.3862 304.956 36.3514 304.906 36.3081 304.872L33.6535 302.811L36.2193 300.229C36.2456 300.202 36.2679 300.169 36.2848 300.131C36.3016 300.093 36.3128 300.05 36.3175 300.006C36.3223 299.962 36.3207 299.917 36.3127 299.874C36.3047 299.831 36.2904 299.791 36.2709 299.755C36.2513 299.719 36.2267 299.689 36.1985 299.666C36.1703 299.643 36.1391 299.628 36.1066 299.622C36.0741 299.615 36.041 299.618 36.0091 299.628C35.9773 299.639 35.9473 299.658 35.9209 299.685L33.0482 302.575C33.0149 302.609 32.9882 302.653 32.9706 302.704C32.953 302.755 32.9451 302.811 32.9475 302.868C32.95 302.924 32.9627 302.978 32.9846 303.026C33.0065 303.074 33.0368 303.114 33.0729 303.141L36.059 305.46C36.1153 305.504 36.182 305.516 36.245 305.495V305.495Z" fill="#6C63FF"/>
<path d="M41.7828 306.477C41.8123 306.47 41.8405 306.458 41.8663 306.442C41.9005 306.421 41.9303 306.393 41.954 306.361C41.9776 306.328 41.9947 306.291 42.0041 306.252C42.0136 306.213 42.0153 306.173 42.0092 306.133C42.0031 306.093 41.9892 306.055 41.9684 306.02L36.9984 297.802C36.9562 297.733 36.8885 297.683 36.8101 297.664C36.7317 297.645 36.649 297.658 36.5802 297.701C36.5114 297.743 36.4619 297.811 36.4427 297.889C36.4235 297.968 36.4361 298.051 36.4778 298.121L41.4477 306.339C41.4816 306.395 41.5324 306.439 41.5928 306.464C41.6531 306.488 41.7197 306.493 41.7828 306.477V306.477Z" fill="#6C63FF"/>
<path d="M501.571 365.519C501.196 365.715 500.816 365.911 500.442 366.101C490.751 371.096 482.998 373.935 472.393 377.045C471.497 366.74 470.632 348.626 469.792 337.397C469.571 334.482 469.351 332.035 469.136 330.309C469.082 329.392 468.9 328.487 468.596 327.622L468.633 330.309L468.725 337.397L469.258 377.93C456.066 381.528 442.515 383.542 428.874 383.93C428.163 383.949 427.464 383.962 426.789 383.975C426.55 383.981 426.317 383.987 426.084 383.987C425.317 383.994 424.556 384 423.79 384C409.415 384.011 395.092 382.221 381.136 378.67C381.437 368.472 381.737 350.56 382.026 337.397C382.087 334.824 382.142 332.427 382.203 330.309C382.32 325.782 382.443 322.52 382.559 321.426C382.456 321.62 382.376 321.826 382.32 322.039C381.752 324.766 381.365 327.529 381.161 330.309C380.946 332.427 380.731 334.824 380.517 337.397C379.376 351.072 378.186 369.667 376.959 377.551C369.657 375.496 362.493 372.956 355.51 369.945C351.83 368.364 348.215 366.659 344.665 364.83C345.34 360.278 346.045 355.176 346.769 349.884C347.334 345.78 347.916 341.563 348.511 337.397C349.431 330.961 380.688 261.457 388.055 259.023L388.239 258.972L388.368 259.029L400.911 255.059L402.745 254.477L403.978 254.085L408.321 250.677L410.682 248.825L412.896 247.086L417.227 243.691L444.037 245.392L449.257 258.346L460.947 262.753L461.15 262.658L461.328 262.583L461.512 262.633C468.876 265.067 475.212 270.021 479.471 276.675C480.048 277.567 480.747 278.743 481.538 280.165C482.213 281.373 482.949 282.751 483.746 284.275C484.881 286.444 486.12 288.891 487.432 291.54C487.721 292.121 488.015 292.716 488.31 293.316C488.856 294.429 489.41 295.565 489.972 296.724C491.278 299.411 492.628 302.218 493.977 305.07C495.149 307.542 496.332 312.625 497.498 319.093C498.461 324.467 499.418 330.802 500.344 337.397C501.558 345.945 500.264 356.181 501.362 364.046C501.43 364.546 501.503 365.033 501.571 365.519Z" fill="#3F3D56"/>
<path d="M422.769 238.785C440.101 238.785 454.15 224.508 454.15 206.897C454.15 189.285 440.101 175.008 422.769 175.008C405.438 175.008 391.388 189.285 391.388 206.897C391.388 224.508 405.438 238.785 422.769 238.785Z" fill="#FFB6B6"/>
<path opacity="0.2" d="M372.56 319.242L377.744 297.656L382.323 316.282L372.56 319.242Z" fill="black"/>
<path d="M512.031 306.258C510.161 332.5 512.099 344.055 501.777 365.691C492.385 370.373 482.603 374.194 472.546 377.107C471.5 377.408 470.452 377.7 469.402 377.985C456.173 381.55 442.582 383.546 428.902 383.931C428.189 383.95 427.488 383.962 426.811 383.975C426.571 383.981 426.337 383.987 426.104 383.987C425.335 383.994 424.572 384 423.803 384C409.387 384.011 395.023 382.237 381.027 378.718C379.624 378.367 378.228 377.997 376.838 377.609C369.515 375.572 362.33 373.054 355.327 370.071C351.636 368.504 348.011 366.815 344.451 365.002C343.646 364.588 342.84 364.174 342.046 363.748C337.968 356.442 335.649 347.557 335.6 336.88C338.423 318.483 505.793 290.393 512.031 306.258Z" fill="#2F2E41"/>
<path opacity="0.2" d="M511.705 310.33C511.801 308.705 511.907 307.026 512.031 305.278C505.818 289.41 339.109 317.505 336.297 335.906C336.305 337.593 336.375 339.23 336.494 340.828C343.304 322.667 501.68 295.964 511.705 310.33Z" fill="black"/>
<path d="M331.685 306.486L345.363 299.523L333.965 268.189L330.961 252.387C330.571 250.334 329.658 248.421 328.314 246.84C326.971 245.259 325.243 244.064 323.304 243.376C321.364 242.687 319.282 242.529 317.264 242.917C315.245 243.305 313.363 244.225 311.803 245.586V245.586C309.493 247.602 308.042 250.454 307.757 253.539C307.472 256.625 308.376 259.702 310.277 262.121L321.427 276.313L331.685 306.486Z" fill="#FFB6B6"/>
<path d="M345.516 293.452L327.231 302.889L341.107 347.769C342.104 350.991 343.89 353.894 346.293 356.194C348.696 358.495 351.633 360.115 354.822 360.899C358.753 361.865 362.88 361.514 366.604 359.896C370.329 358.278 373.458 355.478 375.537 351.901L412.331 286.799C414.939 282.313 415.744 276.952 414.574 271.862C413.404 266.772 410.353 262.355 406.071 259.556V259.556C403.768 258.051 401.184 257.063 398.487 256.656C395.79 256.25 393.04 256.434 390.417 257.198C387.793 257.961 385.355 259.286 383.26 261.086C381.165 262.886 379.461 265.122 378.259 267.647L355.801 317.044L345.516 293.452Z" fill="#3F3D56"/>
<path d="M147.662 236.823C166.727 236.823 182.181 221.008 182.181 201.5C182.181 181.992 166.727 166.178 147.662 166.178C128.598 166.178 113.143 181.992 113.143 201.5C113.143 221.008 128.598 236.823 147.662 236.823Z" fill="#A0616A"/>
<path d="M114.342 176.677C117.152 172.786 121.192 170.02 124.281 166.359C125.977 164.35 127.384 162.075 129.29 160.276C132.831 156.935 137.783 155.566 142.589 155.396C147.855 155.257 153.079 156.394 157.838 158.714C162.597 161.034 166.758 164.472 169.983 168.751C172.495 167.238 175.006 165.725 177.518 164.213C178.51 166.896 179.503 169.579 180.495 172.262C181.309 171.534 182.348 171.127 183.427 171.111C184.506 171.096 185.555 171.473 186.389 172.177C187.223 172.88 187.788 173.864 187.983 174.954C188.178 176.044 187.991 177.17 187.455 178.132C188.053 176.235 190.792 175.832 192.301 177.086C193.811 178.339 194.216 180.569 193.969 182.547C193.66 184.717 192.726 186.743 191.287 188.363C189.849 189.984 187.971 191.126 185.896 191.641C182.618 192.391 178.804 191.603 176.18 193.757C174.077 195.483 173.442 198.626 171.296 200.296C168.651 202.353 164.913 201.401 161.625 201.856C155.873 202.651 151.319 208.694 152.01 214.614C151.49 212.746 150.943 210.824 149.762 209.307C148.58 207.79 146.591 206.763 144.779 207.321C141.785 208.243 141.295 212.436 142.021 215.56C143.946 223.844 151.24 237.234 151.24 237.234C141.768 241.072 130.484 237.443 123.176 230.16C115.868 222.877 112.062 212.564 110.404 202.245C108.998 193.493 109.197 183.8 114.342 176.677Z" fill="#2F2E41"/>
<path d="M461.757 224.217C468.261 208.86 464.576 194.729 456.647 187.232V187.226C453.53 180.032 449.386 174.481 444.643 173.178C442.352 171.661 440.127 169.88 437.658 168.973C436.507 168.53 435.282 168.331 434.055 168.388C432.828 168.445 431.625 168.758 430.519 169.307L429.26 168.961C428.19 166.147 426.937 166.09 425.544 167.941C420.177 165.367 415.343 164.215 411.04 164.215C397.007 164.215 388.707 176.451 386.507 191.242L398.236 194.458L402.312 187.767L400.43 195.062L406.902 196.831C416.755 210.042 404.965 240.518 390.021 257.475C393.578 256.461 397.121 255.605 400.65 254.907L413.473 235.546L405.527 253.17C409.653 252.546 414.915 253.144 420.666 254.347C422.604 251.741 423.625 248.266 422.622 245.17C424.261 248.436 425.391 251.947 425.972 255.574C438.11 258.627 454.667 260.194 463.59 261.352C470.8 258.928 470.82 231.556 461.757 224.217Z" fill="#2F2E41"/>
<path d="M466.139 172.302C470.891 183.204 461.303 187.893 452.52 187.761C444.583 187.641 437.838 181.928 437.433 173.805C437.238 169.904 438.564 166.084 441.118 163.185C443.672 160.286 447.245 158.545 451.052 158.346C458.979 157.931 462.903 164.875 466.139 172.302Z" fill="#2F2E41"/>
<path d="M243.825 352.602L235.878 338.688L262.301 317.645L273.288 305.469C274.715 303.887 276.513 302.726 278.502 302.102C280.49 301.478 282.6 301.413 284.62 301.913C286.641 302.413 288.501 303.461 290.014 304.952C291.528 306.443 292.642 308.325 293.246 310.409V310.409C294.14 313.498 293.857 316.831 292.454 319.705C291.052 322.579 288.641 324.768 285.73 325.812L268.658 331.929L243.825 352.602Z" fill="#A0616A"/>
<path d="M249.825 351.668L237.553 362.259L234.243 365.113L233.857 365.444C233.003 365.883 232.144 366.315 231.278 366.741C228.688 368.018 226.064 369.233 223.408 370.383C216.419 373.41 209.247 375.965 201.939 378.031C200.551 378.425 199.158 378.8 197.758 379.156C196.904 379.372 196.045 379.588 195.185 379.792C194.645 379.925 194.099 380.052 193.552 380.173C192.889 380.326 192.226 380.478 191.563 380.618C190.87 380.771 190.176 380.917 189.482 381.057C187.615 379.217 186.129 377.004 185.114 374.552C184.099 372.1 183.575 369.46 183.576 366.792C183.576 366.62 183.576 366.442 183.582 366.264L185.553 313.927L186.425 290.731C186.559 285.485 188.669 280.502 192.305 276.846C195.94 273.189 200.812 271.15 205.88 271.164C206.469 271.164 207.053 271.196 207.63 271.253C208.047 271.813 208.434 272.391 208.809 272.976C209.828 274.54 211.203 277.013 212.824 280.115C213.493 281.392 214.199 282.778 214.942 284.247C215.39 285.13 219.258 297.628 223.021 310.393L221.363 323.723L218.367 347.753L230.658 339.4L239.315 333.513L240.34 335.287L243.01 339.902L248.167 348.801L249.825 351.668Z" fill="#3F3D56"/>
<path d="M242.851 336.88C242.845 337.945 242.821 338.991 242.766 340.025C242.638 342.877 242.314 345.716 241.798 348.522C240.952 353.233 239.443 357.794 237.319 362.063C237.037 362.633 236.737 363.197 236.43 363.748C235.64 364.174 234.837 364.588 234.035 365.001C233.9 365.07 233.765 365.139 233.63 365.202C230.218 366.938 226.742 368.56 223.202 370.071C216.227 373.054 209.07 375.572 201.776 377.609C200.391 377.997 199.001 378.367 197.604 378.718C194.877 379.407 192.124 380.031 189.345 380.591C178.03 382.864 166.527 384.006 154.997 384C154.231 384 153.471 383.994 152.705 383.987C152.472 383.987 152.24 383.981 152.001 383.975C151.327 383.962 150.628 383.95 149.917 383.931C136.292 383.546 122.755 381.55 109.577 377.985C108.53 377.703 107.486 377.41 106.447 377.107C96.4292 374.194 86.6855 370.373 77.3312 365.691C67.0502 344.054 68.9802 332.5 67.1176 306.258C70.9408 296.489 135.623 303.388 185.423 314.422C198.939 317.417 211.353 320.72 221.162 324.078C231.296 327.543 238.642 331.065 241.522 334.373C242.195 335.058 242.657 335.929 242.851 336.88V336.88Z" fill="#2F2E41"/>
<path opacity="0.2" d="M66.051 310.33C65.9551 308.705 65.8479 307.026 65.7228 305.278C71.9849 289.41 240.017 317.505 242.851 335.906C242.844 337.593 242.772 339.23 242.653 340.828C235.788 322.667 76.1559 295.964 66.051 310.33Z" fill="black"/>
</g>
<defs>
<filter id="filter0_d_1201_441" x="0" y="0" width="581.148" height="405" filterUnits="userSpaceOnUse" color-interpolation-filters="sRGB">
<feFlood flood-opacity="0" result="BackgroundImageFix"/>
<feColorMatrix in="SourceAlpha" type="matrix" values="0 0 0 0 0 0 0 0 0 0 0 0 0 0 0 0 0 0 127 0" result="hardAlpha"/>
<feOffset dx="1" dy="1"/>
<feGaussianBlur stdDeviation="10"/>
<feComposite in2="hardAlpha" operator="out"/>
<feColorMatrix type="matrix" values="0 0 0 0 0.0941176 0 0 0 0 1 0 0 0 0 1 0 0 0 0.5 0"/>
<feBlend mode="normal" in2="BackgroundImageFix" result="effect1_dropShadow_1201_441"/>
<feBlend mode="normal" in="SourceGraphic" in2="effect1_dropShadow_1201_441" result="shape"/>
</filter>
</defs>
</svg>
