<svg width="790" height="342" viewBox="0 0 790 342" fill="none" xmlns="http://www.w3.org/2000/svg">
<g filter="url(#filter0_d_1479_42)">
<ellipse cx="369.5" cy="165" rx="365.5" ry="165" fill="#161D6F" fill-opacity="0.7" shape-rendering="crispEdges"/>
</g>
<path d="M224.632 199.68V201H288.592V184.92H240.592L224.632 199.68ZM224.632 105L240.592 121.08H288.592V105H224.632ZM224.632 145.08V161.04H240.592H288.592V145.08H240.592H224.632ZM316.641 105H296.121L333.801 153L343.881 140.04L316.641 105ZM296.121 201H316.641L343.881 165.96L333.801 153L296.121 201ZM391.521 105H371.241L343.881 140.04L354.081 153L391.521 105ZM343.881 165.96L371.241 201H391.521L354.081 153L343.881 165.96ZM422.758 105C409.438 105 398.158 109.8 388.918 119.16C379.558 128.52 374.758 139.8 374.758 153C374.758 166.32 379.558 177.48 388.918 186.84C398.278 196.2 409.438 201 422.758 201C436.078 201 447.238 196.2 456.598 186.84C466.078 177.6 470.878 166.32 470.878 153C470.878 139.8 466.078 128.52 456.598 119.16C447.238 109.8 436.078 105 422.758 105ZM422.758 121.08C431.518 121.08 439.078 124.2 445.318 130.44C451.558 136.68 454.678 144.24 454.678 153C454.678 161.76 451.678 169.32 445.318 175.68C439.078 181.92 431.518 184.92 422.758 184.92C413.998 184.92 406.318 181.92 400.078 175.68C393.838 169.44 390.838 161.76 390.838 153C390.838 144.24 393.838 136.68 400.078 130.44C406.438 124.08 413.998 121.08 422.758 121.08ZM523.385 134.52C520.745 128.64 517.385 123.6 512.945 119.16C508.625 114.84 503.465 111.36 497.705 108.84C491.825 106.32 485.705 105 479.105 105H447.185L463.145 121.08H479.105C483.425 121.08 487.625 121.92 491.465 123.48C495.305 125.16 498.785 127.56 501.665 130.44C504.665 133.44 506.945 136.8 508.625 140.64C510.305 144.6 511.145 148.68 511.145 153C511.145 157.32 510.305 161.4 508.625 165.36C506.945 169.2 504.665 172.56 501.785 175.56C498.905 178.56 495.425 180.84 491.585 182.52C487.745 184.08 483.545 184.92 479.105 184.92H463.145L447.185 201H479.105C485.705 201 491.945 199.68 497.705 197.16C503.585 194.64 508.745 191.16 513.065 186.84C517.385 182.4 520.745 177.36 523.385 171.48C525.905 165.72 527.105 159.6 527.105 153C527.105 146.4 525.905 140.28 523.385 134.52ZM605.954 161.04C605.954 167.52 603.434 173.16 598.754 177.84C594.074 182.52 588.434 184.92 581.834 184.92C575.234 184.92 569.474 182.64 564.794 177.84C560.234 173.28 557.954 167.64 557.954 161.04V105H541.994V161.04C541.994 171.96 545.834 181.56 553.634 189.36C561.434 197.16 570.914 201 581.834 201C592.754 201 602.354 197.16 610.154 189.36C618.074 181.56 621.914 172.08 621.914 161.04H605.954ZM652.198 161.04C655.558 161.04 658.318 162.24 660.718 164.64C662.998 167.04 664.318 169.8 664.318 173.04C664.318 174.72 663.958 176.28 663.358 177.72C662.758 179.28 661.918 180.48 660.838 181.56C659.758 182.64 658.438 183.48 656.878 184.08C655.438 184.68 653.878 184.92 652.198 184.92V201C659.998 201 666.598 198.24 671.998 192.84C677.518 187.32 680.278 180.72 680.278 173.04C680.278 165.36 677.518 158.76 671.998 153.24C666.598 147.84 659.998 145.08 652.198 145.08H628.318C624.838 145.08 622.078 143.88 619.678 141.48C617.398 139.08 616.318 136.32 616.318 132.96C616.318 131.4 616.558 129.84 617.158 128.4C617.758 126.96 618.598 125.64 619.678 124.56C620.878 123.36 622.078 122.52 623.638 121.92C625.078 121.32 626.638 121.08 628.318 121.08V105C620.518 105 613.918 107.76 608.518 113.28C603.118 118.8 600.358 125.28 600.358 132.96C600.358 140.76 603.118 147.36 608.518 152.88C613.918 158.28 620.518 161.04 628.318 161.04H652.198Z" fill="white"/>
<g filter="url(#filter1_d_1479_42)">
<g filter="url(#filter2_d_1479_42)">
<path d="M60 115.803L97.3156 152.803L60 189.946H75.1982L112.307 152.803L75.9489 115.803" fill="url(#paint0_linear_1479_42)"/>
</g>
<g filter="url(#filter3_d_1479_42)">
<path d="M183 115.803L145.282 152.803L183 189.946H167.639L130.127 152.803L166.877 115.803" fill="url(#paint1_linear_1479_42)"/>
</g>
<g filter="url(#filter4_d_1479_42)">
<path d="M84.9677 212.155L121.435 174.305L158.032 212.155V196.746L121.435 159.083L84.9677 195.984" fill="url(#paint2_linear_1479_42)"/>
</g>
<g filter="url(#filter5_d_1479_42)">
<path d="M84.9677 91L86.1535 92.2473L87.6113 93.7816L121.435 129.269L158.032 91V106.586L121.435 144.645L84.9677 107.348" fill="url(#paint3_linear_1479_42)"/>
</g>
</g>
<defs>
<filter id="filter0_d_1479_42" x="0" y="0" width="739" height="342" filterUnits="userSpaceOnUse" color-interpolation-filters="sRGB">
<feFlood flood-opacity="0" result="BackgroundImageFix"/>
<feColorMatrix in="SourceAlpha" type="matrix" values="0 0 0 0 0 0 0 0 0 0 0 0 0 0 0 0 0 0 127 0" result="hardAlpha"/>
<feOffset dy="8"/>
<feGaussianBlur stdDeviation="2"/>
<feComposite in2="hardAlpha" operator="out"/>
<feColorMatrix type="matrix" values="0 0 0 0 0 0 0 0 0 0 0 0 0 0 0 0 0 0 0.25 0"/>
<feBlend mode="normal" in2="BackgroundImageFix" result="effect1_dropShadow_1479_42"/>
<feBlend mode="normal" in="SourceGraphic" in2="effect1_dropShadow_1479_42" result="shape"/>
</filter>
<filter id="filter1_d_1479_42" x="52" y="87" width="139" height="137.155" filterUnits="userSpaceOnUse" color-interpolation-filters="sRGB">
<feFlood flood-opacity="0" result="BackgroundImageFix"/>
<feColorMatrix in="SourceAlpha" type="matrix" values="0 0 0 0 0 0 0 0 0 0 0 0 0 0 0 0 0 0 127 0" result="hardAlpha"/>
<feOffset dy="4"/>
<feGaussianBlur stdDeviation="4"/>
<feComposite in2="hardAlpha" operator="out"/>
<feColorMatrix type="matrix" values="0 0 0 0 0.0235294 0 0 0 0 0.823529 0 0 0 0 0.87451 0 0 0 1 0"/>
<feBlend mode="normal" in2="BackgroundImageFix" result="effect1_dropShadow_1479_42"/>
<feBlend mode="normal" in="SourceGraphic" in2="effect1_dropShadow_1479_42" result="shape"/>
</filter>
<filter id="filter2_d_1479_42" x="22" y="77.8029" width="132.307" height="154.143" filterUnits="userSpaceOnUse" color-interpolation-filters="sRGB">
<feFlood flood-opacity="0" result="BackgroundImageFix"/>
<feColorMatrix in="SourceAlpha" type="matrix" values="0 0 0 0 0 0 0 0 0 0 0 0 0 0 0 0 0 0 127 0" result="hardAlpha"/>
<feOffset dx="2" dy="2"/>
<feGaussianBlur stdDeviation="20"/>
<feColorMatrix type="matrix" values="0 0 0 0 0.0588235 0 0 0 0 0.745098 0 0 0 0 0.811765 0 0 0 0.34 0"/>
<feBlend mode="normal" in2="BackgroundImageFix" result="effect1_dropShadow_1479_42"/>
<feBlend mode="normal" in="SourceGraphic" in2="effect1_dropShadow_1479_42" result="shape"/>
</filter>
<filter id="filter3_d_1479_42" x="92.1272" y="77.8029" width="132.873" height="154.143" filterUnits="userSpaceOnUse" color-interpolation-filters="sRGB">
<feFlood flood-opacity="0" result="BackgroundImageFix"/>
<feColorMatrix in="SourceAlpha" type="matrix" values="0 0 0 0 0 0 0 0 0 0 0 0 0 0 0 0 0 0 127 0" result="hardAlpha"/>
<feOffset dx="2" dy="2"/>
<feGaussianBlur stdDeviation="20"/>
<feColorMatrix type="matrix" values="0 0 0 0 0.0588235 0 0 0 0 0.745098 0 0 0 0 0.811765 0 0 0 0.34 0"/>
<feBlend mode="normal" in2="BackgroundImageFix" result="effect1_dropShadow_1479_42"/>
<feBlend mode="normal" in="SourceGraphic" in2="effect1_dropShadow_1479_42" result="shape"/>
</filter>
<filter id="filter4_d_1479_42" x="46.9677" y="121.083" width="153.065" height="133.072" filterUnits="userSpaceOnUse" color-interpolation-filters="sRGB">
<feFlood flood-opacity="0" result="BackgroundImageFix"/>
<feColorMatrix in="SourceAlpha" type="matrix" values="0 0 0 0 0 0 0 0 0 0 0 0 0 0 0 0 0 0 127 0" result="hardAlpha"/>
<feOffset dx="2" dy="2"/>
<feGaussianBlur stdDeviation="20"/>
<feColorMatrix type="matrix" values="0 0 0 0 0.0588235 0 0 0 0 0.745098 0 0 0 0 0.811765 0 0 0 0.34 0"/>
<feBlend mode="normal" in2="BackgroundImageFix" result="effect1_dropShadow_1479_42"/>
<feBlend mode="normal" in="SourceGraphic" in2="effect1_dropShadow_1479_42" result="shape"/>
</filter>
<filter id="filter5_d_1479_42" x="46.9677" y="53" width="153.065" height="133.645" filterUnits="userSpaceOnUse" color-interpolation-filters="sRGB">
<feFlood flood-opacity="0" result="BackgroundImageFix"/>
<feColorMatrix in="SourceAlpha" type="matrix" values="0 0 0 0 0 0 0 0 0 0 0 0 0 0 0 0 0 0 127 0" result="hardAlpha"/>
<feOffset dx="2" dy="2"/>
<feGaussianBlur stdDeviation="20"/>
<feColorMatrix type="matrix" values="0 0 0 0 0.0588235 0 0 0 0 0.745098 0 0 0 0 0.811765 0 0 0 0.34 0"/>
<feBlend mode="normal" in2="BackgroundImageFix" result="effect1_dropShadow_1479_42"/>
<feBlend mode="normal" in="SourceGraphic" in2="effect1_dropShadow_1479_42" result="shape"/>
</filter>
<linearGradient id="paint0_linear_1479_42" x1="61.8386" y1="152.814" x2="181.303" y2="153.886" gradientUnits="userSpaceOnUse">
<stop stop-color="#0A92B5"/>
<stop offset="0.08" stop-color="#117DAD"/>
<stop offset="0.22" stop-color="#1B61A3"/>
<stop offset="0.37" stop-color="#234C9B"/>
<stop offset="0.53" stop-color="#293C96"/>
<stop offset="0.72" stop-color="#2C3393"/>
<stop offset="0.99" stop-color="#2E3192"/>
</linearGradient>
<linearGradient id="paint1_linear_1479_42" x1="61.9365" y1="151.831" x2="181.401" y2="152.904" gradientUnits="userSpaceOnUse">
<stop stop-color="#0B6FB7"/>
<stop offset="0.39" stop-color="#0B6DB4"/>
<stop offset="0.57" stop-color="#0E66AD"/>
<stop offset="0.71" stop-color="#125AA0"/>
<stop offset="0.83" stop-color="#174A8E"/>
<stop offset="0.93" stop-color="#1F3476"/>
<stop offset="1" stop-color="#262262"/>
</linearGradient>
<linearGradient id="paint2_linear_1479_42" x1="61.6318" y1="185.233" x2="181.096" y2="186.305" gradientUnits="userSpaceOnUse">
<stop stop-color="#0B6FB7"/>
<stop offset="1" stop-color="#2B3990"/>
</linearGradient>
<linearGradient id="paint3_linear_1479_42" x1="62.2411" y1="117.105" x2="181.706" y2="118.178" gradientUnits="userSpaceOnUse">
<stop stop-color="#0B6FB7"/>
<stop offset="1" stop-color="#2B3990"/>
</linearGradient>
</defs>
</svg>
