<svg width="430" height="932" viewBox="0 0 430 932" fill="none" xmlns="http://www.w3.org/2000/svg">
<path d="M1004.89 1074.15L1004.89 -15.6597L-55.7192 -15.6597V1074.15H1004.89Z" fill="url(#paint0_linear_1195_181)"/>
<path style="mix-blend-mode:screen" opacity="0.2" d="M447.558 -573C487.09 -470.668 477.332 -348.356 455.941 -237.377C449.714 -205.061 442.555 -172.846 440.159 -139.692C436.089 -83.3812 445.799 -25.2548 434.162 29.2643C423.007 81.5177 391.558 125.824 352.221 144.717C319.013 160.664 277.823 177.402 284.536 234.125C288.085 264.112 301.224 289.841 314.288 314.31C330.786 345.204 342.63 381.026 327.896 416.551C310.267 459.061 274.813 484.033 238.605 490.064C203.488 495.913 159.682 473.767 131.954 512.44C127.49 519.721 124.123 528.229 122.16 537.317C120.198 546.399 119.641 556.056 120.808 565.647C130.142 640.161 174.686 691.116 209.865 745.448C216.322 754.847 222.783 764.232 229.244 773.616C268.012 829.907 306.78 886.199 345.547 942.486L-461.63 925.241L-478 657.411C-437.261 618.178 -420.927 550.792 -402.727 489.513C-384.528 428.235 -357.061 362.923 -308.464 343.738C-259.656 324.466 -208.916 358.847 -158.428 368.494C-83.1817 382.87 18.6386 340.547 74.9692 273.511C113.357 227.83 93.1642 191.572 88.3072 136.434C85.7263 107.151 94.9762 76.2914 112.301 57.0773C142.755 23.3004 187.754 29.0057 227.397 20.8429C316.953 2.3952 386.975 -95.2517 420.426 -204.118C453.877 -312.984 457.276 -432.767 460.25 -549.824" fill="url(#paint1_linear_1195_181)"/>
<path style="mix-blend-mode:screen" opacity="0.5" d="M183.667 242.402C192.691 256.932 195.944 275.394 196.925 292.05C198.118 312.323 196.594 332.227 197.292 352.389C199.281 380.925 216.393 414.017 238.87 427.78C251.651 435.607 264.048 445.274 274.239 458.113C285.213 471.933 292.828 488.972 304.283 502.347C307.328 506.275 310.209 510.256 312.963 514.352C343.254 559.429 357.546 618.073 389.707 661.914C394.683 668.697 400.216 675.212 406.801 679.112C414.116 683.442 422.075 684.189 429.747 684.568C483.453 687.202 535.841 675.619 582.316 650.839C573.703 621.574 555.013 596.248 533.614 577.953C512.215 559.659 488.142 547.726 464.087 537.796C442.741 528.986 420.926 521.47 400.857 507.731C380.788 493.992 362.191 472.723 355.08 446.621C350.444 429.6 351.085 412.068 346.591 395.023C343.793 384.422 338.688 373.27 330.658 366.746C322.924 360.466 313.701 359.565 305.693 354.128C285.248 340.25 270.028 314.814 263.146 288.567C255.346 258.824 247.727 229.593 230.911 204.333C228.325 200.573 225.563 197.057 222.611 193.866C216.711 187.485 210.082 182.417 202.723 179.356C181.749 170.623 161.141 173.344 144.271 154.422C140.462 150.149 132.763 178.408 133.422 181.306C135.079 188.626 142.154 197.416 146.715 202.59C158.065 215.461 171.796 225.191 181.912 239.715C182.522 240.592 183.114 241.487 183.68 242.402H183.667Z" fill="url(#paint2_linear_1195_181)"/>
<path d="M146.145 154.475L148.642 156.88C148.916 157.143 148.996 157.594 148.819 157.895L133.824 183.189C133.647 183.486 133.28 183.514 133.011 183.251L130.514 180.846L146.15 154.475H146.145Z" fill="url(#paint3_linear_1195_181)"/>
<path d="M145.429 147.711L147.943 150.135C148.217 150.398 148.292 150.854 148.12 151.151L128.542 184.175C128.365 184.472 127.998 184.501 127.729 184.238L125.214 181.814L145.433 147.711H145.429Z" fill="url(#paint4_linear_1195_181)"/>
<path d="M63.5803 132.08C87.7371 155.352 108.102 174.973 116.906 183.457L116.702 183.797L100.288 211.485L63.5449 141.306L63.5803 132.075V132.08Z" fill="url(#paint5_linear_1195_181)"/>
<path d="M161.021 109.043L144.399 137.076L91.0781 85.7046L98.03 83.1321L161.021 109.043Z" fill="url(#paint6_linear_1195_181)"/>
<path d="M18.2939 52.0187C18.2939 52.0187 18.7845 88.9236 55.0993 123.912L118.399 184.899C120.154 186.59 122.488 186.408 123.623 184.501L147.024 145.028C148.156 143.122 147.652 140.209 145.897 138.518L82.5973 77.5322C46.2825 42.5481 18.2984 52.0187 18.2984 52.0187H18.2939Z" fill="url(#paint7_linear_1195_181)"/>
<path style="mix-blend-mode:screen" opacity="0.5" d="M70.9083 89.4888C82.1779 100.344 96.7842 114.418 96.7842 114.418L91.7947 122.83L86.8095 131.242C86.8095 131.242 72.2031 117.168 60.9335 106.313C49.6638 95.4576 47.9756 80.6075 47.9756 80.6075C47.9756 80.6075 59.6386 78.629 70.9083 89.484V89.4888Z" fill="url(#paint8_linear_1195_181)"/>
<path opacity="0.5" d="M98.6139 114.279L87.2073 133.522L60.2219 107.525C48.581 96.3103 46.7426 81.2303 46.6718 80.5979L46.5127 79.2039L47.6088 79.0171C48.1082 78.9309 59.9877 77.0674 71.6286 88.2865L98.6139 114.284V114.279ZM86.4206 128.966L94.9634 114.557L70.1967 90.696C61.6185 82.4326 52.6867 81.9728 49.5312 82.1069C50.2914 86.0111 53.0756 96.8421 61.6538 105.105L86.4206 128.966Z" fill="url(#paint9_linear_1195_181)"/>
<path style="mix-blend-mode:screen" d="M56.7389 91.3571C58.3697 94.3511 59.1077 97.187 58.3918 97.69C57.6714 98.193 55.7666 96.1763 54.1314 93.1823C52.5007 90.1883 51.7626 87.3524 52.4785 86.8494C53.1989 86.3464 55.1037 88.3631 56.7389 91.3571Z" fill="url(#paint10_linear_1195_181)"/>
<path style="mix-blend-mode:multiply" opacity="0.2" d="M161.021 109.044L144.4 137.082L145.893 138.519C147.648 140.21 148.152 143.122 147.02 145.029L145.429 147.716L147.944 150.14C148.218 150.404 148.293 150.859 148.121 151.156L146.15 154.485L148.647 156.89C148.921 157.153 149 157.604 148.824 157.905L141.324 170.552L18.2988 52.0287C18.2988 52.0287 46.2829 42.5534 82.5978 77.5422L91.0832 85.7194L98.035 83.1469L161.026 109.058L161.021 109.044Z" fill="url(#paint11_linear_1195_181)"/>
<path style="mix-blend-mode:screen" opacity="0.5" d="M228.658 1217C503.508 1217 726.317 993.142 726.317 717C726.317 440.858 503.508 217 228.658 217C-46.1907 217 -269 440.858 -269 717C-269 993.142 -46.1907 1217 228.658 1217Z" fill="url(#paint12_radial_1195_181)"/>
<path d="M228.659 1136.29C459.141 1136.29 645.984 948.567 645.984 717C645.984 485.433 459.141 297.711 228.659 297.711C-1.82257 297.711 -188.665 485.433 -188.665 717C-188.665 948.567 -1.82257 1136.29 228.659 1136.29Z" fill="url(#paint13_radial_1195_181)"/>
<path style="mix-blend-mode:screen" opacity="0.2" d="M359.788 442.246C369.272 439.823 377.721 434.226 387.21 431.835C399.213 428.817 411.874 431.161 423.849 434.263C448.17 440.562 471.63 449.949 496.027 455.95C529.733 464.236 565.034 465.915 599.371 460.868C625.906 456.968 651.995 449.086 678.807 448.761C669.465 462.749 653.959 471.219 638.512 477.77C621.14 485.138 603.038 490.777 584.566 494.576C575.186 496.503 565.583 497.962 556.067 496.952C538.499 495.09 523.014 485.12 506.866 477.94C457.588 456.023 401.144 459.868 347.628 466.227C342.432 466.846 337.122 467.475 332.013 466.355C325.489 464.924 319.94 460.795 314.199 457.358C278.252 435.855 232.271 441.053 192.689 454.661C176.029 460.386 158.689 467.58 141.409 464.213C136.11 458.781 142.045 448.962 149.44 447.324C156.834 445.687 164.331 448.811 171.78 450.178C197.705 454.941 222.298 438.465 247.984 432.528C257.778 430.262 267.849 429.537 277.876 428.817C292.931 427.739 307.681 423.238 320.032 432.047C332.024 440.599 344.772 446.086 359.799 442.25L359.788 442.246Z" fill="url(#paint14_linear_1195_181)"/>
<path style="mix-blend-mode:screen" opacity="0.1" d="M23.0208 738.43C56.1121 728.97 91.7387 735.205 124.4 746.078C157.062 756.952 188.167 772.354 221.253 781.837C269.524 795.67 320.418 796.468 370.61 796.885C411.03 797.22 451.591 797.363 491.674 792.109C570.811 781.736 648.213 750.414 727.736 757.186C738.466 781.442 721.099 809.557 699.596 824.982C667.321 848.133 626.183 854.955 586.535 855.96C546.893 856.965 507.082 852.826 467.636 856.928C421.253 861.75 376.703 877.831 330.538 884.437C299.938 888.814 268.915 888.993 238.005 889.163C204.56 889.346 167.584 888.218 143.106 865.324C121.506 845.123 114.971 812.356 93.0609 792.495C82.1193 782.576 68.2179 776.717 54.6104 771.037C45.2793 767.146 20.5833 761.994 14.5657 754.328C9.32072 747.648 11.4535 738.43 23.0262 738.43H23.0208Z" fill="url(#paint15_linear_1195_181)"/>
<path style="mix-blend-mode:screen" opacity="0.2" d="M-139.633 534.386C-131.537 532.422 -123.261 530.568 -114.959 531.197C-103.299 532.082 -92.6348 537.753 -81.9924 542.612C-35.7724 563.73 16.574 571.08 66.7822 563.51C93.0071 559.555 118.454 551.673 143.933 544.291C152.786 541.726 161.905 539.194 171.078 540.088C182.085 541.162 191.976 547.039 201.394 552.861C253.376 584.972 304.292 619.937 361.366 641.634C418.441 663.326 483.802 670.607 539.87 646.419C542.302 659.678 533.417 672.937 521.877 679.81C510.331 686.683 496.609 688.555 483.301 690.289C436.994 696.318 389.425 702.286 344.075 691.106C291.397 678.117 243.126 642.386 188.989 645.832C161.839 647.561 136.447 659.151 110.543 667.505C84.6391 675.86 55.6665 680.874 30.8018 669.776C12.0418 661.403 -1.78891 645.001 -18.4488 632.949C-68.0095 597.108 -135.112 603.466 -195.842 609.876C-209.2 611.284 -223.281 612.514 -235.533 606.99C-247.786 601.466 -256.981 586.67 -251.633 574.292C-218.395 554.004 -177.028 543.447 -139.633 534.381V534.386Z" fill="url(#paint16_linear_1195_181)"/>
<path style="mix-blend-mode:multiply" opacity="0.2" d="M348.574 552.43C361.687 551.811 372.117 560.353 385.877 558.16C398.407 556.16 410.018 550.535 422.488 548.25C435.138 545.934 448.109 550.044 459.638 554.999C469.155 559.092 483.301 563.721 490.407 571.475C511.136 594.098 475.276 614.289 457.495 621.327C435.873 629.884 410.442 634.229 387.607 628.269C370.414 623.782 357.633 610.257 350.054 594.584C346.724 587.693 332.807 553.178 348.569 552.43H348.574Z" fill="url(#paint17_linear_1195_181)"/>
<path d="M246.439 655.526C246.439 684.251 217.635 707.544 182.112 707.544C161.611 707.544 143.351 699.791 131.577 687.706C122.943 678.851 117.79 667.675 117.79 655.526C117.79 626.801 146.588 603.508 182.112 603.508C208.19 603.508 230.644 616.056 240.742 634.096C244.399 640.629 246.439 647.887 246.439 655.526Z" fill="#9855DB"/>
<path d="M246.44 655.526C246.44 684.251 217.636 707.544 182.112 707.544C161.611 707.544 143.352 699.791 131.578 687.706C127.927 681.173 125.897 673.928 125.897 666.298C125.897 637.573 154.701 614.28 190.225 614.28C210.715 614.28 228.969 622.025 240.748 634.1C244.405 640.633 246.445 647.892 246.445 655.531L246.44 655.526Z" fill="#000308"/>
<path d="M493.28 545.186C493.28 566.208 472.207 583.247 446.211 583.247C431.21 583.247 417.848 577.572 409.235 568.731C402.918 562.253 399.147 554.072 399.147 545.186C399.147 524.164 420.22 507.124 446.211 507.124C465.292 507.124 481.723 516.304 489.112 529.504C491.789 534.285 493.28 539.593 493.28 545.181V545.186Z" fill="#9855DB"/>
<path d="M493.28 545.186C493.28 566.208 472.207 583.247 446.211 583.247C431.211 583.247 417.848 577.572 409.235 568.731C406.563 563.95 405.078 558.647 405.078 553.068C405.078 532.046 426.151 515.006 452.147 515.006C467.142 515.006 480.494 520.672 489.112 529.509C491.789 534.289 493.28 539.597 493.28 545.186Z" fill="#000308"/>
<path d="M462.948 764.816C462.948 785.838 441.875 802.877 415.879 802.877C400.878 802.877 387.516 797.202 378.903 788.361C372.586 781.883 368.815 773.702 368.815 764.816C368.815 743.794 389.888 726.754 415.879 726.754C434.96 726.754 451.391 735.934 458.78 749.134C461.457 753.915 462.948 759.223 462.948 764.811V764.816Z" fill="#9855DB"/>
<path d="M462.948 764.816C462.948 785.838 441.875 802.877 415.879 802.877C400.879 802.877 387.516 797.202 378.903 788.361C376.231 783.58 374.746 778.277 374.746 772.698C374.746 751.676 395.819 734.636 421.815 734.636C436.81 734.636 450.162 740.302 458.78 749.139C461.457 753.919 462.948 759.228 462.948 764.816Z" fill="#000308"/>
<path d="M42.4823 808.952C42.4823 838.145 13.2106 861.814 -22.8895 861.814C-43.7225 861.814 -62.2812 853.932 -74.2457 841.655C-83.0218 832.658 -88.2559 821.298 -88.2559 808.952C-88.2559 779.759 -58.9895 756.089 -22.8895 756.089C3.61295 756.089 26.4318 768.839 36.6933 787.173C40.4094 793.812 42.4823 801.184 42.4823 808.947V808.952Z" fill="#9855DB"/>
<path d="M42.4822 808.952C42.4822 838.145 13.2105 861.814 -22.8896 861.814C-43.7226 861.814 -62.2814 853.932 -74.2458 841.655C-77.9565 835.016 -80.0186 827.652 -80.0186 819.899C-80.0186 790.706 -50.7468 767.036 -14.6468 767.036C6.17538 767.036 24.7232 774.909 36.6986 787.177C40.4147 793.816 42.4876 801.189 42.4876 808.952H42.4822Z" fill="#000308"/>
<path d="M288.281 393.866C288.281 409.244 262.524 421.715 230.755 421.715C212.424 421.715 196.091 417.562 185.558 411.093C177.837 406.354 173.229 400.367 173.229 393.866C173.229 378.487 198.98 366.017 230.749 366.017C254.074 366.017 274.151 372.734 283.183 382.391C286.453 385.887 288.275 389.773 288.275 393.861L288.281 393.866Z" fill="#9855DB"/>
<path d="M288.281 393.866C288.281 409.245 262.524 421.715 230.755 421.715C212.424 421.715 196.091 417.563 185.557 411.094C182.293 407.597 180.476 403.716 180.476 399.633C180.476 384.254 206.233 371.784 238.002 371.784C256.327 371.784 272.649 375.931 283.183 382.396C286.453 385.892 288.275 389.778 288.275 393.866H288.281Z" fill="#000308"/>
<path d="M147.079 507.358C147.079 518.328 131.627 527.219 112.562 527.219C101.561 527.219 91.7618 524.26 85.4449 519.644C80.8093 516.263 78.0508 511.996 78.0508 507.358C78.0508 496.388 93.5028 487.497 112.562 487.497C126.556 487.497 138.602 492.286 144.021 499.178C145.985 501.673 147.079 504.445 147.079 507.358Z" fill="#9855DB"/>
<path d="M147.079 507.358C147.079 518.328 131.627 527.219 112.563 527.219C101.561 527.219 91.7622 524.26 85.4454 519.645C83.4867 517.149 82.3984 514.382 82.3984 511.469C82.3984 500.499 97.8505 491.607 116.915 491.607C127.911 491.607 137.705 494.567 144.027 499.173C145.991 501.669 147.085 504.44 147.085 507.353L147.079 507.358Z" fill="#000308"/>
<path d="M284.095 742.748C284.095 749.396 274.732 754.786 263.175 754.786C256.51 754.786 250.569 752.993 246.744 750.194C243.937 748.143 242.261 745.56 242.261 742.748C242.261 736.1 251.624 730.709 263.175 730.709C271.658 730.709 278.959 733.613 282.24 737.788C283.432 739.297 284.09 740.977 284.09 742.748H284.095Z" fill="#9855DB"/>
<path d="M284.095 742.748C284.095 749.396 274.731 754.786 263.175 754.786C256.51 754.786 250.568 752.993 246.743 750.194C245.557 748.684 244.894 747.005 244.894 745.239C244.894 738.591 254.257 733.2 265.814 733.2C272.479 733.2 278.415 734.994 282.245 737.788C283.437 739.297 284.095 740.977 284.095 742.748Z" fill="#000308"/>
<path d="M93.4373 404.808C93.4373 411.456 84.0736 416.847 72.5172 416.847C65.8522 416.847 59.9107 415.053 56.0858 412.254C53.2783 410.203 51.6025 407.62 51.6025 404.808C51.6025 398.16 60.9663 392.769 72.5172 392.769C80.9995 392.769 88.3011 395.673 91.5819 399.848C92.7735 401.358 93.4318 403.037 93.4318 404.808H93.4373Z" fill="#9855DB"/>
<path d="M93.4367 404.808C93.4367 411.456 84.073 416.847 72.5166 416.847C65.8516 416.847 59.9101 415.053 56.0852 412.254C54.8991 410.745 54.2354 409.066 54.2354 407.299C54.2354 400.651 63.599 395.26 75.1554 395.26C81.8204 395.26 87.7564 397.054 91.5868 399.848C92.7783 401.358 93.4367 403.037 93.4367 404.808Z" fill="#000308"/>
<path d="M322.492 501.485C322.492 508.133 313.128 513.524 301.572 513.524C294.907 513.524 288.965 511.73 285.14 508.932C282.333 506.881 280.657 504.298 280.657 501.485C280.657 494.837 290.021 489.447 301.572 489.447C310.054 489.447 317.356 492.351 320.637 496.526C321.828 498.035 322.487 499.714 322.487 501.485H322.492Z" fill="#9855DB"/>
<path d="M322.491 501.485C322.491 508.133 313.128 513.524 301.571 513.524C294.906 513.524 288.965 511.73 285.14 508.932C283.954 507.422 283.29 505.743 283.29 503.977C283.29 497.329 292.654 491.938 304.21 491.938C310.875 491.938 316.811 493.732 320.641 496.526C321.833 498.035 322.491 499.714 322.491 501.485Z" fill="#000308"/>
<path style="mix-blend-mode:screen" opacity="0.5" d="M427.758 209.143C469.76 209.143 503.809 165.17 503.809 110.926C503.809 56.6822 469.76 12.709 427.758 12.709C385.757 12.709 351.708 56.6822 351.708 110.926C351.708 165.17 385.757 209.143 427.758 209.143Z" fill="url(#paint18_radial_1195_181)"/>
<path d="M518.693 63.0462C512.218 46.4907 467.042 59.1181 417.792 91.2471C368.537 123.376 333.862 162.839 340.336 179.395L340.575 179.955C347.854 195.648 392.552 182.949 441.237 151.189C490.492 119.06 525.167 79.5921 518.693 63.0414V63.0462ZM439.761 147.414C405.386 169.833 372.939 176.286 367.282 161.819C361.625 147.352 384.898 117.446 419.272 95.0267C453.647 72.603 486.095 66.1551 491.752 80.622C497.409 95.089 474.131 124.99 439.761 147.414Z" fill="#B2FCFF"/>
<path d="M427.042 182.753C455.944 182.753 479.373 152.495 479.373 115.17C479.373 77.8454 455.944 47.5876 427.042 47.5876C398.14 47.5876 374.711 77.8454 374.711 115.17C374.711 152.495 398.14 182.753 427.042 182.753Z" fill="url(#paint19_radial_1195_181)"/>
<path style="mix-blend-mode:screen" opacity="0.2" d="M385.698 101.642C387.97 101.422 390.356 101.091 392.212 99.3908C393.688 98.0399 394.665 95.9609 395.408 93.8339C397.759 87.1035 398.13 79.5442 398.625 72.191C398.824 69.2449 399.085 66.1743 400.34 63.7025C401.749 60.9193 404.189 59.3481 406.545 58.0163C417.907 51.5877 430.436 47.5063 439.806 37.0154C440.415 36.3303 441.065 35.4345 440.928 34.4046C440.818 33.5758 440.23 33.0058 439.655 32.6178C437.339 31.0513 434.608 30.9843 431.996 31.0705C417.629 31.5448 403.336 35.5303 390.095 42.7446C382.171 47.0655 374.305 52.9098 369.699 62.2894C364.922 72.0138 364.396 83.9226 364.666 95.1225C364.825 101.719 365.797 102.198 370.769 102.265C375.745 102.332 380.726 102.131 385.689 101.652L385.698 101.642Z" fill="url(#paint20_linear_1195_181)"/>
<path style="mix-blend-mode:screen" opacity="0.2" d="M360.701 142.911C367.794 141.623 374.932 140.32 381.742 137.445C388.553 134.576 395.089 130.02 399.853 123.113C405.294 115.228 408.219 104.646 414.376 97.6949C422.234 88.8232 434.356 87.0268 440.583 76.2101C443.474 71.1946 444.724 64.7372 448.043 60.1816C452.335 54.2894 459.092 52.8331 464.409 48.541C465.412 47.7314 466.49 46.2176 465.907 44.8811C465.522 43.9949 464.616 43.7985 463.83 43.7123C458.761 43.1566 453.28 43.3051 449.122 47.0895C444.689 51.123 442.789 58.3133 439.386 63.76C434.776 71.1371 427.559 75.0173 420.382 76.991C416.599 78.0305 412.621 78.6772 409.351 81.3454C402.717 86.7489 401.038 98.5764 395.111 105.206C392.999 107.568 390.435 109.158 387.823 110.433C381.817 113.364 375.361 114.758 368.944 114.519C365.563 123.917 362.42 132.784 360.706 142.911H360.701Z" fill="url(#paint21_linear_1195_181)"/>
<path style="mix-blend-mode:screen" opacity="0.2" d="M504.993 98.1213C501.475 106.179 497.93 114.289 493.378 121.427C488.822 128.569 483.156 134.763 476.439 137.977C468.771 141.647 460.073 141.302 452.816 146.169C443.553 152.377 437.834 166.298 427.767 169.843C423.095 171.486 417.986 170.638 413.492 172.966C407.676 175.979 404.162 183.572 399.129 188.396C398.178 189.306 396.693 190.049 395.942 188.865C395.443 188.075 395.633 186.916 395.858 185.938C397.308 179.644 399.411 173.105 403.659 169.483C408.184 165.622 414.058 165.963 419.228 163.855C426.229 161 431.656 153.742 435.7 145.829C437.83 141.661 439.748 137.115 442.864 134.154C449.179 128.152 458.319 130.447 465.262 125.738C467.737 124.061 469.818 121.556 471.692 118.878C475.996 112.722 479.36 105.475 481.525 97.6663C489.533 97.0292 497.073 96.4878 504.997 98.1165L504.993 98.1213Z" fill="url(#paint22_linear_1195_181)"/>
<path d="M377.212 145.742L377.15 145.436C378.883 144.856 380.682 144.372 382.582 143.86C388.862 142.164 395.354 140.415 399.906 135.122C402.792 131.769 404.975 127.635 407.137 123.338C407.486 122.643 407.835 121.944 408.184 121.249C410.756 116.104 413.417 110.787 416.696 106.241C420.492 100.976 425.446 97.7141 430.237 94.5572C434.352 91.8459 438.608 89.0435 442.126 84.9813C443.641 83.2328 445.051 81.4412 446.412 79.7071C451.3 73.4892 455.919 67.6113 463.79 66.1934C465.124 65.9539 466.486 65.7814 467.803 65.6138C469.836 65.3599 471.939 65.0916 473.972 64.5694C476.319 63.9611 478.529 62.7635 480.668 61.5994C481.441 61.1779 482.237 60.7468 483.037 60.3444L483.125 60.6414C482.33 61.0438 481.534 61.4749 480.761 61.8964C478.613 63.0653 476.39 64.2725 474.021 64.8856C471.975 65.4126 469.867 65.6809 467.829 65.9347C466.512 66.1024 465.155 66.27 463.825 66.5096C456.034 67.9179 451.658 73.4844 446.585 79.937C445.219 81.6711 443.809 83.4675 442.289 85.2208C438.745 89.3118 434.475 92.1237 430.348 94.8446C425.575 97.9871 420.642 101.235 416.877 106.461C413.611 110.988 410.959 116.296 408.392 121.426C408.043 122.126 407.693 122.82 407.344 123.515C405.174 127.826 402.982 131.98 400.07 135.362C395.465 140.708 388.942 142.47 382.631 144.176C380.73 144.688 378.94 145.172 377.212 145.747V145.742Z" fill="#AABEFF"/>
<path style="mix-blend-mode:multiply" opacity="0.2" d="M377.332 161.886C378.826 152.444 386.454 148.631 392.65 145.714C399.779 142.36 407.429 138.681 411.353 129.656C414.672 122.02 417.324 113.316 423.078 108.114C428.328 103.367 434.785 102.389 440.531 99.0506C448.729 94.2842 455.521 86.9932 462.73 80.2052C464.029 78.9789 471.759 70.1838 473.358 71.4341C475.139 72.8233 475.254 76.6747 474.326 79.0747C473.398 81.4795 471.613 83.1034 469.871 84.5692C465.085 88.5932 460.149 92.3488 455.566 96.7704C450.934 101.24 447.465 107.05 443.059 111.769C440.08 114.955 436.593 117.192 433.031 119.065C429.782 120.77 426.499 121.766 423.935 125.057C417.143 133.776 415.583 148.018 406.24 153.349C399.407 157.254 392.323 160.367 385.247 163.476C383.25 164.353 380.921 165.191 379.14 163.725C378.684 163.352 377.606 162.485 377.323 161.886H377.332Z" fill="url(#paint23_linear_1195_181)"/>
<path d="M390.073 169.052L390.047 168.736C396.398 167.907 402.55 165.723 408.335 162.245C411.548 160.315 413.766 158.47 415.53 156.262C417.602 153.666 419.123 150.403 420.497 147.285C422.084 143.692 423.608 139.999 425.031 136.305L425.341 135.501C426.459 132.583 427.617 129.57 429.252 127.031C433.866 119.865 441.264 117.585 448.415 115.381C449.334 115.098 450.249 114.816 451.15 114.528C458.862 112.047 464.723 108.919 469.597 104.689C475.586 99.4865 479.939 92.4399 481.857 84.8472L482.091 84.943C480.16 92.6028 475.771 99.7069 469.734 104.948C464.838 109.201 458.955 112.344 451.212 114.835C450.311 115.127 449.396 115.405 448.477 115.692C441.361 117.882 434.007 120.147 429.447 127.237C427.829 129.747 426.68 132.746 425.566 135.644L425.257 136.449C423.829 140.147 422.305 143.85 420.714 147.443C419.33 150.581 417.801 153.867 415.702 156.492C413.921 158.724 411.68 160.588 408.441 162.533C402.629 166.025 396.451 168.219 390.073 169.052Z" fill="#AABEFF"/>
<path d="M441.233 151.194C392.548 182.954 347.85 195.653 340.571 179.96L340.332 179.399L367.278 161.824C372.934 176.29 405.382 169.838 439.757 147.419C474.127 124.995 497.405 95.0937 491.748 80.6267L518.693 63.0509C525.168 79.6016 490.488 119.069 441.237 151.199L441.233 151.194Z" fill="#B2FCFF"/>
<g opacity="0.5">
<path style="mix-blend-mode:screen" d="M255.663 64.7706C260.043 70.4232 260.043 79.592 255.663 85.2446C251.284 90.8973 244.186 90.8973 239.811 85.2446C235.436 79.592 139.922 -64.234 139.922 -64.234C139.922 -64.234 251.284 59.1132 255.663 64.7658V64.7706Z" fill="url(#paint24_linear_1195_181)"/>
<path style="mix-blend-mode:screen" d="M247.753 87.3859C253.257 87.3859 257.719 81.623 257.719 74.5142C257.719 67.4053 253.257 61.6425 247.753 61.6425C242.249 61.6425 237.787 67.4053 237.787 74.5142C237.787 81.623 242.249 87.3859 247.753 87.3859Z" fill="url(#paint25_linear_1195_181)"/>
</g>
<g opacity="0.5">
<path style="mix-blend-mode:screen" d="M89.651 479.434C92.0994 482.596 92.0994 487.722 89.651 490.883C87.2026 494.045 83.2339 494.045 80.7855 490.883C78.3371 487.722 24.9277 407.296 24.9277 407.296C24.9277 407.296 87.2026 476.273 89.651 479.434Z" fill="url(#paint26_linear_1195_181)"/>
<path style="mix-blend-mode:screen" d="M85.2272 492.081C88.3051 492.081 90.8002 488.858 90.8002 484.881C90.8002 480.905 88.3051 477.681 85.2272 477.681C82.1494 477.681 79.6543 480.905 79.6543 484.881C79.6543 488.858 82.1494 492.081 85.2272 492.081Z" fill="url(#paint27_linear_1195_181)"/>
</g>
<g style="mix-blend-mode:screen">
<path d="M349.865 512.747C352.843 512.747 355.257 509.63 355.257 505.786C355.257 501.942 352.843 498.826 349.865 498.826C346.888 498.826 344.474 501.942 344.474 505.786C344.474 509.63 346.888 512.747 349.865 512.747Z" fill="#A1EEFF"/>
</g>
<g style="mix-blend-mode:screen">
<path d="M119.756 308.232C122.734 308.232 125.148 305.115 125.148 301.271C125.148 297.427 122.734 294.311 119.756 294.311C116.778 294.311 114.364 297.427 114.364 301.271C114.364 305.115 116.778 308.232 119.756 308.232Z" fill="#A1EEFF"/>
</g>
<g style="mix-blend-mode:screen">
<path d="M400.583 514.572C400.583 516.641 399.283 518.318 397.683 518.318C396.084 518.318 394.784 516.641 394.784 514.572C394.784 512.502 396.084 510.826 397.683 510.826C399.283 510.826 400.583 512.502 400.583 514.572Z" fill="#A1EEFF"/>
</g>
<g style="mix-blend-mode:screen">
<path d="M201.477 217.607C201.477 219.677 200.178 221.353 198.578 221.353C196.978 221.353 195.679 219.677 195.679 217.607C195.679 215.538 196.978 213.861 198.578 213.861C200.178 213.861 201.477 215.538 201.477 217.607Z" fill="#A1EEFF"/>
</g>
<g style="mix-blend-mode:screen">
<path d="M115.947 150.748C115.947 152.818 114.647 154.494 113.048 154.494C111.448 154.494 110.148 152.818 110.148 150.748C110.148 148.679 111.448 147.002 113.048 147.002C114.647 147.002 115.947 148.679 115.947 150.748Z" fill="#A1EEFF"/>
</g>
<g style="mix-blend-mode:screen">
<path d="M2.84327 749.746C2.84327 751.815 1.54392 753.492 -0.0559304 753.492C-1.65578 753.492 -2.95508 751.815 -2.95508 749.746C-2.95508 747.676 -1.65578 745.999 -0.0559304 745.999C1.54392 745.999 2.84327 747.676 2.84327 749.746Z" fill="#A1EEFF"/>
</g>
<g style="mix-blend-mode:screen">
<path d="M0.930185 609.278C0.930185 611.347 -0.369166 613.024 -1.96902 613.024C-3.56887 613.024 -4.86816 611.347 -4.86816 609.278C-4.86816 607.208 -3.56887 605.531 -1.96902 605.531C-0.369166 605.531 0.930185 607.208 0.930185 609.278Z" fill="#A1EEFF"/>
</g>
<g style="mix-blend-mode:screen">
<path d="M31.645 96.2913C31.645 98.3607 30.3457 100.037 28.7458 100.037C27.146 100.037 25.8467 98.3607 25.8467 96.2913C25.8467 94.2218 27.146 92.5452 28.7458 92.5452C30.3457 92.5452 31.645 94.2218 31.645 96.2913Z" fill="#A1EEFF"/>
</g>
<g style="mix-blend-mode:screen">
<path d="M384.292 671.777C384.292 673.847 382.993 675.524 381.393 675.524C379.793 675.524 378.494 673.847 378.494 671.777C378.494 669.708 379.793 668.031 381.393 668.031C382.993 668.031 384.292 669.708 384.292 671.777Z" fill="#A1EEFF"/>
</g>
<g style="mix-blend-mode:screen">
<path d="M249.631 147.036C249.631 149.105 248.332 150.782 246.732 150.782C245.132 150.782 243.833 149.105 243.833 147.036C243.833 144.966 245.132 143.29 246.732 143.29C248.332 143.29 249.631 144.966 249.631 147.036Z" fill="#A1EEFF"/>
</g>
<g style="mix-blend-mode:screen">
<path d="M372.528 193.411C372.528 195.481 371.228 197.157 369.629 197.157C368.029 197.157 366.729 195.481 366.729 193.411C366.729 191.342 368.029 189.665 369.629 189.665C371.228 189.665 372.528 191.342 372.528 193.411Z" fill="#A1EEFF"/>
</g>
<g style="mix-blend-mode:screen">
<path d="M80.0386 31.9374C80.0386 34.0069 78.7392 35.6836 77.1394 35.6836C75.5395 35.6836 74.2402 34.0069 74.2402 31.9374C74.2402 29.868 75.5395 28.1914 77.1394 28.1914C78.7392 28.1914 80.0386 29.868 80.0386 31.9374Z" fill="#A1EEFF"/>
</g>
<g style="mix-blend-mode:screen">
<path d="M390.763 229.713C390.763 230.944 389.989 231.945 389.035 231.945C388.08 231.945 387.307 230.944 387.307 229.713C387.307 228.481 388.08 227.48 389.035 227.48C389.989 227.48 390.763 228.481 390.763 229.713Z" fill="#A1EEFF"/>
</g>
<g style="mix-blend-mode:screen">
<path d="M304.181 222.129C304.181 222.556 303.911 222.905 303.58 222.905C303.248 222.905 302.979 222.556 302.979 222.129C302.979 221.703 303.248 221.353 303.58 221.353C303.911 221.353 304.181 221.698 304.181 222.129Z" fill="#A1EEFF"/>
</g>
<g style="mix-blend-mode:screen">
<path d="M179.053 250.067C179.053 250.493 178.783 250.843 178.452 250.843C178.12 250.843 177.851 250.493 177.851 250.067C177.851 249.641 178.12 249.291 178.452 249.291C178.783 249.291 179.053 249.641 179.053 250.067Z" fill="#A1EEFF"/>
</g>
<g style="mix-blend-mode:screen">
<path d="M226.01 238.924C226.01 239.351 225.74 239.701 225.409 239.701C225.077 239.701 224.808 239.351 224.808 238.924C224.808 238.498 225.077 238.148 225.409 238.148C225.74 238.148 226.01 238.493 226.01 238.924Z" fill="#A1EEFF"/>
</g>
<g style="mix-blend-mode:screen">
<path d="M137.006 261.822C137.006 262.249 136.736 262.598 136.405 262.598C136.073 262.598 135.804 262.254 135.804 261.822C135.804 261.391 136.073 261.046 136.405 261.046C136.736 261.046 137.006 261.396 137.006 261.822Z" fill="#A1EEFF"/>
</g>
<g style="mix-blend-mode:screen">
<path d="M35.5517 270.483C35.5517 270.91 35.2821 271.259 34.9507 271.259C34.6192 271.259 34.3496 270.91 34.3496 270.483C34.3496 270.057 34.6192 269.707 34.9507 269.707C35.2821 269.707 35.5517 270.052 35.5517 270.483Z" fill="#A1EEFF"/>
</g>
<g style="mix-blend-mode:screen">
<path d="M186.601 272.653C186.601 273.08 186.331 273.43 185.999 273.43C185.668 273.43 185.398 273.085 185.398 272.653C185.398 272.222 185.668 271.877 185.999 271.877C186.331 271.877 186.601 272.222 186.601 272.653Z" fill="#A1EEFF"/>
</g>
<g style="mix-blend-mode:screen">
<path d="M383.409 471.444C383.409 471.871 383.14 472.22 382.808 472.22C382.477 472.22 382.207 471.875 382.207 471.444C382.207 471.013 382.477 470.668 382.808 470.668C383.14 470.668 383.409 471.013 383.409 471.444Z" fill="#A1EEFF"/>
</g>
<g style="mix-blend-mode:screen">
<path d="M95.7978 589.479C95.7978 589.905 95.5282 590.255 95.1967 590.255C94.8653 590.255 94.5957 589.905 94.5957 589.479C94.5957 589.053 94.8653 588.703 95.1967 588.703C95.5282 588.703 95.7978 589.053 95.7978 589.479Z" fill="#A1EEFF"/>
</g>
<g style="mix-blend-mode:screen">
<path d="M58.5469 555.601C58.5469 556.028 58.2772 556.378 57.9458 556.378C57.6143 556.378 57.3447 556.028 57.3447 555.601C57.3447 555.175 57.6143 554.825 57.9458 554.825C58.2772 554.825 58.5469 555.17 58.5469 555.601Z" fill="#A1EEFF"/>
</g>
<g style="mix-blend-mode:screen">
<path d="M56.6327 619.955C56.6327 620.382 56.3632 620.731 56.0317 620.731C55.7002 620.731 55.4307 620.382 55.4307 619.955C55.4307 619.529 55.7002 619.179 56.0317 619.179C56.3632 619.179 56.6327 619.524 56.6327 619.955Z" fill="#A1EEFF"/>
</g>
<g style="mix-blend-mode:screen">
<path d="M133.174 787.494C133.174 787.92 132.904 788.27 132.573 788.27C132.241 788.27 131.972 787.92 131.972 787.494C131.972 787.067 132.241 786.718 132.573 786.718C132.904 786.718 133.174 787.063 133.174 787.494Z" fill="#A1EEFF"/>
</g>
<g style="mix-blend-mode:screen">
<path d="M372.987 724.994C372.987 725.42 372.718 725.77 372.386 725.77C372.055 725.77 371.785 725.425 371.785 724.994C371.785 724.563 372.055 724.218 372.386 724.218C372.718 724.218 372.987 724.567 372.987 724.994Z" fill="#A1EEFF"/>
</g>
<g style="mix-blend-mode:screen">
<path d="M425.451 605.565C425.451 605.991 425.182 606.341 424.85 606.341C424.519 606.341 424.249 605.996 424.249 605.565C424.249 605.134 424.519 604.789 424.85 604.789C425.182 604.789 425.451 605.139 425.451 605.565Z" fill="#A1EEFF"/>
</g>
<g style="mix-blend-mode:screen">
<path d="M419.702 691.581C419.702 692.007 419.433 692.357 419.101 692.357C418.77 692.357 418.5 692.012 418.5 691.581C418.5 691.15 418.77 690.805 419.101 690.805C419.433 690.805 419.702 691.155 419.702 691.581Z" fill="#A1EEFF"/>
</g>
<g style="mix-blend-mode:screen">
<path d="M375.741 619.797C375.741 620.224 375.472 620.573 375.14 620.573C374.809 620.573 374.539 620.228 374.539 619.797C374.539 619.366 374.809 619.021 375.14 619.021C375.472 619.021 375.741 619.371 375.741 619.797Z" fill="#A1EEFF"/>
</g>
<g style="mix-blend-mode:screen">
<path d="M117.003 511.046C117.335 511.046 117.604 510.699 117.604 510.27C117.604 509.842 117.335 509.494 117.003 509.494C116.671 509.494 116.402 509.842 116.402 510.27C116.402 510.699 116.671 511.046 117.003 511.046Z" fill="#A1EEFF"/>
</g>
<g style="mix-blend-mode:screen">
<path d="M73.8818 655.845C73.8818 656.271 73.6122 656.621 73.2807 656.621C72.9493 656.621 72.6797 656.276 72.6797 655.845C72.6797 655.414 72.9493 655.069 73.2807 655.069C73.6122 655.069 73.8818 655.418 73.8818 655.845Z" fill="#A1EEFF"/>
</g>
<g style="mix-blend-mode:screen">
<path d="M93.0449 743.714C93.0449 744.141 92.7753 744.491 92.4438 744.491C92.1124 744.491 91.8428 744.141 91.8428 743.714C91.8428 743.288 92.1124 742.938 92.4438 742.938C92.7753 742.938 93.0449 743.283 93.0449 743.714Z" fill="#A1EEFF"/>
</g>
<g style="mix-blend-mode:screen">
<path d="M78.7919 802.967C78.7919 803.393 78.5223 803.743 78.1909 803.743C77.8594 803.743 77.5898 803.398 77.5898 802.967C77.5898 802.535 77.8594 802.19 78.1909 802.19C78.5223 802.19 78.7919 802.54 78.7919 802.967Z" fill="#A1EEFF"/>
</g>
<g style="mix-blend-mode:screen">
<path d="M354.179 426.889C354.179 427.315 353.909 427.665 353.578 427.665C353.246 427.665 352.977 427.32 352.977 426.889C352.977 426.458 353.246 426.113 353.578 426.113C353.909 426.113 354.179 426.463 354.179 426.889Z" fill="#A1EEFF"/>
</g>
<g style="mix-blend-mode:screen">
<path d="M273.806 468.81C273.806 469.236 273.536 469.586 273.205 469.586C272.873 469.586 272.604 469.241 272.604 468.81C272.604 468.378 272.873 468.033 273.205 468.033C273.536 468.033 273.806 468.383 273.806 468.81Z" fill="#A1EEFF"/>
</g>
<g style="mix-blend-mode:screen">
<path d="M356.097 554.983C356.097 555.41 355.827 555.76 355.496 555.76C355.164 555.76 354.895 555.41 354.895 554.983C354.895 554.557 355.164 554.207 355.496 554.207C355.827 554.207 356.097 554.552 356.097 554.983Z" fill="#A1EEFF"/>
</g>
<g style="mix-blend-mode:screen">
<path d="M15.1874 254.091C15.1874 254.517 14.9179 254.867 14.5864 254.867C14.2549 254.867 13.9854 254.522 13.9854 254.091C13.9854 253.66 14.2549 253.315 14.5864 253.315C14.9179 253.315 15.1874 253.664 15.1874 254.091Z" fill="#A1EEFF"/>
</g>
<g style="mix-blend-mode:screen">
<path d="M134.133 184.779C134.133 185.205 133.863 185.555 133.532 185.555C133.2 185.555 132.931 185.205 132.931 184.779C132.931 184.353 133.2 184.003 133.532 184.003C133.863 184.003 134.133 184.353 134.133 184.779Z" fill="#A1EEFF"/>
</g>
<g style="mix-blend-mode:screen">
<path d="M24.6445 284.874C24.6445 285.3 24.3749 285.65 24.0434 285.65C23.712 285.65 23.4424 285.305 23.4424 284.874C23.4424 284.443 23.712 284.098 24.0434 284.098C24.3749 284.098 24.6445 284.447 24.6445 284.874Z" fill="#A1EEFF"/>
</g>
<g style="mix-blend-mode:screen">
<path d="M256.791 175.807C256.791 176.233 256.521 176.583 256.19 176.583C255.858 176.583 255.589 176.238 255.589 175.807C255.589 175.375 255.858 175.031 256.19 175.031C256.521 175.031 256.791 175.38 256.791 175.807Z" fill="#A1EEFF"/>
</g>
<g style="mix-blend-mode:screen">
<path d="M359.91 239.854C359.91 241.085 359.137 242.086 358.182 242.086C357.228 242.086 356.454 241.085 356.454 239.854C356.454 238.623 357.228 237.621 358.182 237.621C359.137 237.621 359.91 238.623 359.91 239.854Z" fill="#A1EEFF"/>
</g>
<g style="mix-blend-mode:screen">
<path d="M234.084 203.102C234.084 204.333 233.311 205.334 232.356 205.334C231.401 205.334 230.628 204.333 230.628 203.102C230.628 201.871 231.401 200.87 232.356 200.87C233.311 200.87 234.084 201.871 234.084 203.102Z" fill="#A1EEFF"/>
</g>
<g style="mix-blend-mode:screen">
<path d="M428.858 49.9492C428.858 51.1804 428.085 52.1815 427.13 52.1815C426.176 52.1815 425.402 51.1804 425.402 49.9492C425.402 48.7181 426.176 47.7169 427.13 47.7169C428.085 47.7169 428.858 48.7181 428.858 49.9492Z" fill="#A1EEFF"/>
</g>
<g style="mix-blend-mode:screen">
<path d="M170.121 305.204C171.075 305.204 171.849 304.205 171.849 302.972C171.849 301.739 171.075 300.739 170.121 300.739C169.166 300.739 168.393 301.739 168.393 302.972C168.393 304.205 169.166 305.204 170.121 305.204Z" fill="#A1EEFF"/>
</g>
<g style="mix-blend-mode:screen">
<path d="M133.466 232.807C133.466 234.038 132.692 235.039 131.738 235.039C130.783 235.039 130.01 234.038 130.01 232.807C130.01 231.576 130.783 230.575 131.738 230.575C132.692 230.575 133.466 231.576 133.466 232.807Z" fill="#A1EEFF"/>
</g>
<g style="mix-blend-mode:screen">
<path d="M36.9658 717.569C36.9658 718.8 36.1924 719.801 35.2378 719.801C34.2832 719.801 33.5098 718.8 33.5098 717.569C33.5098 716.338 34.2832 715.336 35.2378 715.336C36.1924 715.336 36.9658 716.338 36.9658 717.569Z" fill="#A1EEFF"/>
</g>
<g style="mix-blend-mode:screen">
<path d="M41.9472 653.215C41.9472 654.446 41.1738 655.447 40.2192 655.447C39.2646 655.447 38.4912 654.446 38.4912 653.215C38.4912 651.984 39.2646 650.983 40.2192 650.983C41.1738 650.983 41.9472 651.984 41.9472 653.215Z" fill="#A1EEFF"/>
</g>
<g style="mix-blend-mode:overlay">
<path d="M1006.88 598.222V853.937H858.244V947.943H-23.2826V1007.6H-56V646.653H-15.0403V756.06H0.167095V669.637L23.3428 684.952V742.618L38.5723 742.609V714.269L48.9979 711.816L49.3382 711.735L57.6026 709.795L60.1747 709.191L72.7791 706.221V657.882H93.0203V619.554H161.036V681.632L163.467 682.202L187.765 687.922L204.957 691.97V742.546H224.526V654.317L226.82 652.799L232.618 648.967L243.013 642.097L253.509 635.161L254.283 634.648V745.636H274.117V710.513L296.988 695.903V745.636H305.257V654.317L310.445 657.647L328.543 669.249L342.725 678.341V645.891H373.86V583.233L374.417 582.984L388.44 576.747L397.058 572.91L425.656 560.187V745.636H440.537V662.466L441.045 662.049L441.306 661.838L457.26 648.799L475.256 634.088V703.208H503.36V664.995H546.617V745.636H560.115V586.601L562.735 589.269L564.375 590.946L564.508 591.075L596.345 623.544L597.592 624.818V745.636H609.988V648.421L636.713 621.163V679.323H652.698V555.415H723.233V600.929H748.234V551.99L749.321 552.474L788.575 569.93V618.725H812.816V643.999L812.931 643.922V586.994H866.482V696.401H881.693V609.973L886.559 613.187L892.357 617.02L901.793 623.257L904.865 625.288V693.991H920.099V654.605L927.775 652.799L931.107 652.013L937.127 650.6L944.07 648.967L954.301 646.557V598.222H1006.88Z" fill="#030A0B"/>
</g>
<path style="mix-blend-mode:screen" d="M1006.88 747.792H-56V943.344H1006.88V747.792Z" fill="url(#paint28_linear_1195_181)"/>
<path d="M1024.16 890.866V933.107H-56V852.342H-7.27971V875.929H10.6147V923.886H32.2393V916.815H58.0755V896.911H68.0679V897.156H113.213V909.74H122.909V902.099H142.443V901.874H152.197V893.256H162.128V893.227H203.291V908.954H217.605V920.743H244.003V900.336H257.575V900.303H321.401V922.315H338.102V929.395H344.369V921.563H364.35V921.529H419.527V909.769H435.34V909.74H488.28V890.703H511.001V890.866H569.555V907.373H626.822L633.885 916.691L633.977 916.815H684.09V902.66H720.82V883.81H743.143V883.79H780.722V897.941H827.25V909.74H851.906V886.248H868.413V886.147H945.913V864.873H968.638V864.916H993.678V890.866H1024.16Z" fill="#030A0B"/>
<path style="mix-blend-mode:screen" d="M112.289 551.784L-31.6445 549.978V482.233H112.289V551.784Z" fill="url(#paint29_linear_1195_181)"/>
<path d="M-22.8105 555.08V537.471H14.7594L40.2068 544.268V555.08H66.8695V546.275H75.757V542.208H104.439V557.14L53.5403 569.863H0.824797L-22.8105 555.08Z" fill="white"/>
<path d="M96.3607 489.064H94.7432V546.323H96.3607V489.064Z" fill="white"/>
<path d="M112.116 550.036H-31.6934V942.209H112.116V550.036Z" fill="url(#paint30_linear_1195_181)"/>
<path style="mix-blend-mode:multiply" d="M91.1107 550.036H-10.6875V942.209H91.1107V550.036Z" fill="url(#paint31_linear_1195_181)"/>
<path d="M25.0875 594.505H27.6641V590.481H25.0875V594.505Z" fill="#00E8E2"/>
<path d="M35.9293 617.968H38.5059V613.944H35.9293V617.968Z" fill="#00E8E2"/>
<path d="M25.0875 641.431H27.6641V637.407H25.0875V641.431Z" fill="#00E8E2"/>
<path d="M57.5973 664.89H60.1738V660.866H57.5973V664.89Z" fill="#00E8E2"/>
<path d="M46.7614 664.89H49.3379V660.866H46.7614V664.89Z" fill="#00E8E2"/>
<path d="M25.0875 664.89H27.6641V660.866H25.0875V664.89Z" fill="#00E8E2"/>
<path d="M68.4342 688.358H71.0107V684.334H68.4342V688.358Z" fill="#00E8E2"/>
<path d="M57.5973 711.816H60.1738V707.792H57.5973V711.816Z" fill="#00E8E2"/>
<path d="M35.9293 735.279H38.5059V731.255H35.9293V735.279Z" fill="#00E8E2"/>
<path d="M25.0875 735.279H27.6641V731.255H25.0875V735.279Z" fill="#00E8E2"/>
<g opacity="0.24">
<path d="M46.7604 594.505H49.3369V590.481H46.7604V594.505Z" fill="white"/>
<path d="M35.9283 594.505H38.5049V590.481H35.9283V594.505Z" fill="white"/>
<path d="M68.4342 617.968H71.0107V613.944H68.4342V617.968Z" fill="white"/>
<path d="M14.2515 617.968H16.8281V613.944H14.2515V617.968Z" fill="white"/>
<path d="M3.41468 617.968H5.99121L5.99121 613.944H3.41468L3.41468 617.968Z" fill="white"/>
<path d="M68.4342 641.431H71.0107V637.407H68.4342V641.431Z" fill="white"/>
<path d="M46.7614 641.431H49.3379V637.407H46.7614V641.431Z" fill="white"/>
<path d="M35.9293 641.431H38.5059V637.407H35.9293V641.431Z" fill="white"/>
<path d="M14.2515 641.431H16.8281V637.407H14.2515V641.431Z" fill="white"/>
<path d="M3.41468 641.431H5.99121L5.99121 637.407H3.41468L3.41468 641.431Z" fill="white"/>
<path d="M68.4352 664.89H71.0117V660.866H68.4352V664.89Z" fill="white"/>
<path d="M35.9293 664.89H38.5059V660.866H35.9293V664.89Z" fill="white"/>
<path d="M14.2515 664.89H16.8281V660.866H14.2515V664.89Z" fill="white"/>
<path d="M79.2711 688.358H81.8477V684.334H79.2711V688.358Z" fill="white"/>
<path d="M57.5973 688.358H60.1738V684.334H57.5973V688.358Z" fill="white"/>
<path d="M68.4342 711.816H71.0107V707.792H68.4342V711.816Z" fill="white"/>
<path d="M46.7614 711.816H49.3379V707.792H46.7614V711.816Z" fill="white"/>
<path d="M35.9293 711.816H38.5059V707.792H35.9293V711.816Z" fill="white"/>
<path d="M25.0875 711.816H27.6641V707.792H25.0875V711.816Z" fill="white"/>
<path d="M79.2711 735.279H81.8477V731.255H79.2711V735.279Z" fill="white"/>
<path d="M68.4342 735.279H71.0107V731.255H68.4342V735.279Z" fill="white"/>
<path d="M57.5983 735.279H60.1748V731.255H57.5983V735.279Z" fill="white"/>
<path d="M46.7614 735.279H49.3379V731.255H46.7614V735.279Z" fill="white"/>
<path d="M14.2515 735.279H16.8281V731.255H14.2515V735.279Z" fill="white"/>
<path d="M3.41468 735.279H5.99121L5.99121 731.255H3.41468L3.41468 735.279Z" fill="white"/>
</g>
<path d="M60.1791 897.73H57.6025V901.754H60.1791V897.73Z" fill="#00E8E2"/>
<path d="M49.3422 874.272H46.7656V878.296H49.3422V874.272Z" fill="#00E8E2"/>
<path d="M60.1791 850.809H57.6025V854.833H60.1791V850.809Z" fill="#00E8E2"/>
<path d="M27.6655 827.346H25.0889V831.369H27.6655V827.346Z" fill="#00E8E2"/>
<path d="M38.5013 827.346H35.9248V831.369H38.5013V827.346Z" fill="#00E8E2"/>
<path d="M60.1791 827.346H57.6025V831.369H60.1791V827.346Z" fill="#00E8E2"/>
<path d="M16.8285 803.882H14.252V807.906H16.8285V803.882Z" fill="#00E8E2"/>
<path d="M27.6655 780.424H25.0889V784.448H27.6655V780.424Z" fill="#00E8E2"/>
<path d="M49.3422 756.961H46.7656V760.985H49.3422V756.961Z" fill="#00E8E2"/>
<path d="M60.1791 756.961H57.6025V760.985H60.1791V756.961Z" fill="#00E8E2"/>
<g opacity="0.24">
<path d="M38.5013 897.73H35.9248V901.754H38.5013V897.73Z" fill="white"/>
<path d="M49.3422 897.73H46.7656V901.754H49.3422V897.73Z" fill="white"/>
<path d="M16.8285 874.272H14.252V878.296H16.8285V874.272Z" fill="white"/>
<path d="M71.016 874.272H68.4395V878.296H71.016V874.272Z" fill="white"/>
<path d="M81.852 874.272H79.2754V878.296H81.852V874.272Z" fill="white"/>
<path d="M16.8285 850.809H14.252V854.833H16.8285V850.809Z" fill="white"/>
<path d="M38.5013 850.809H35.9248V854.833H38.5013V850.809Z" fill="white"/>
<path d="M49.3422 850.809H46.7656V854.833H49.3422V850.809Z" fill="white"/>
<path d="M71.016 850.809H68.4395V854.833H71.016V850.809Z" fill="white"/>
<path d="M81.852 850.809H79.2754V854.833H81.852V850.809Z" fill="white"/>
<path d="M16.8285 827.346H14.252V831.369H16.8285V827.346Z" fill="white"/>
<path d="M49.3422 827.346H46.7656V831.369H49.3422V827.346Z" fill="white"/>
<path d="M71.016 827.346H68.4395V831.369H71.016V827.346Z" fill="white"/>
<path d="M5.99157 803.882H3.41504V807.906H5.99157V803.882Z" fill="white"/>
<path d="M27.6645 803.882H25.0879V807.906H27.6645V803.882Z" fill="white"/>
<path d="M16.8285 780.424H14.252V784.448H16.8285V780.424Z" fill="white"/>
<path d="M38.5013 780.424H35.9248V784.448H38.5013V780.424Z" fill="white"/>
<path d="M49.3422 780.424H46.7656V784.448H49.3422V780.424Z" fill="white"/>
<path d="M60.1791 780.424H57.6025V784.448H60.1791V780.424Z" fill="white"/>
<path d="M5.99157 756.961H3.41504V760.985H5.99157V756.961Z" fill="white"/>
<path d="M16.8285 756.961H14.252V760.985H16.8285V756.961Z" fill="white"/>
<path d="M27.6645 756.961H25.0879V760.985H27.6645V756.961Z" fill="white"/>
<path d="M38.5013 756.961H35.9248V760.985H38.5013V756.961Z" fill="white"/>
<path d="M71.015 756.961H68.4385V760.985H71.015V756.961Z" fill="white"/>
<path d="M81.852 756.961H79.2754V760.985H81.852V756.961Z" fill="white"/>
</g>
<path d="M356.019 382.948L345.995 393.17V472.068L357.583 483.881V427.508L356.019 382.948Z" fill="url(#paint32_linear_1195_181)"/>
<path d="M356.019 722.829H428.887V360.294L356.019 382.948V722.829Z" fill="url(#paint33_linear_1195_181)"/>
<path style="mix-blend-mode:screen" d="M343.909 469.586L440.895 500.297V434.813H343.909V469.586Z" fill="url(#paint34_linear_1195_181)"/>
<path d="M441.05 952.872H343.856V469.333L441.05 499.55V952.872Z" fill="url(#paint35_linear_1195_181)"/>
<g style="mix-blend-mode:overlay">
<path d="M369.852 506.918H358.277V510.755H369.852V506.918Z" fill="white"/>
<path d="M384.922 506.918H373.348V510.755H384.922V506.918Z" fill="white"/>
<path d="M399.993 506.918H388.418V510.755H399.993V506.918Z" fill="white"/>
<path d="M430.138 506.918H418.563V510.755H430.138V506.918Z" fill="white"/>
<path d="M369.852 516.992H358.277V520.829H369.852V516.992Z" fill="white"/>
<path d="M384.922 516.992H373.348V520.829H384.922V516.992Z" fill="white"/>
<path d="M399.993 516.992H388.418V520.829H399.993V516.992Z" fill="white"/>
<path d="M415.068 516.992H403.493V520.829H415.068V516.992Z" fill="white"/>
<path d="M430.138 516.992H418.563V520.829H430.138V516.992Z" fill="white"/>
<path d="M369.852 527.061H358.277V530.898H369.852V527.061Z" fill="white"/>
<path d="M384.922 527.061H373.348V530.898H384.922V527.061Z" fill="white"/>
<path d="M399.993 527.061H388.418V530.898H399.993V527.061Z" fill="white"/>
<path d="M415.068 527.061H403.493V530.898H415.068V527.061Z" fill="white"/>
<path d="M430.138 527.061H418.563V530.898H430.138V527.061Z" fill="white"/>
<path d="M369.852 537.131H358.277V540.968H369.852V537.131Z" fill="white"/>
<path d="M384.922 537.131H373.348V540.968H384.922V537.131Z" fill="white"/>
<path d="M415.068 537.131H403.493V540.968H415.068V537.131Z" fill="white"/>
<path d="M430.138 537.131H418.563V540.968H430.138V537.131Z" fill="white"/>
<path d="M369.852 547.205H358.277V551.042H369.852V547.205Z" fill="white"/>
<path d="M384.922 547.205H373.348V551.042H384.922V547.205Z" fill="white"/>
<path d="M399.993 547.205H388.418V551.042H399.993V547.205Z" fill="white"/>
<path d="M415.068 547.205H403.493V551.042H415.068V547.205Z" fill="white"/>
<path d="M430.138 547.205H418.563V551.042H430.138V547.205Z" fill="white"/>
<path d="M369.852 572.91H358.277V576.747H369.852V572.91Z" fill="white"/>
<path d="M399.993 572.91H388.418V576.747H399.993V572.91Z" fill="white"/>
<path d="M430.138 572.91H418.563V576.747H430.138V572.91Z" fill="white"/>
<path d="M369.852 582.984H358.277V586.821H369.852V582.984Z" fill="white"/>
<path d="M384.922 582.984H373.348V586.821H384.922V582.984Z" fill="white"/>
<path d="M399.993 582.984H388.418V586.821H399.993V582.984Z" fill="white"/>
<path d="M415.068 582.984H403.493V586.821H415.068V582.984Z" fill="white"/>
<path d="M430.138 582.984H418.563V586.821H430.138V582.984Z" fill="white"/>
<path d="M369.852 593.053H358.277V596.89H369.852V593.053Z" fill="white"/>
<path d="M384.922 593.053H373.348V596.89H384.922V593.053Z" fill="white"/>
<path d="M430.138 593.053H418.563V596.89H430.138V593.053Z" fill="white"/>
<path d="M369.852 603.128H358.277V606.965H369.852V603.128Z" fill="white"/>
<path d="M384.922 603.128H373.348V606.965H384.922V603.128Z" fill="white"/>
<path d="M399.993 603.128H388.418V606.965H399.993V603.128Z" fill="white"/>
<path d="M415.068 603.128H403.493V606.965H415.068V603.128Z" fill="white"/>
<path d="M430.138 603.128H418.563V606.965H430.138V603.128Z" fill="white"/>
<path d="M369.852 613.197H358.277V617.034H369.852V613.197Z" fill="white"/>
<path d="M399.993 613.197H388.418V617.034H399.993V613.197Z" fill="white"/>
<path d="M415.068 613.197H403.493V617.034H415.068V613.197Z" fill="white"/>
<path d="M430.138 613.197H418.563V617.034H430.138V613.197Z" fill="white"/>
<path d="M369.852 638.902H358.277V642.739H369.852V638.902Z" fill="white"/>
<path d="M399.993 638.902H388.418V642.739H399.993V638.902Z" fill="white"/>
<path d="M415.068 638.902H403.493V642.739H415.068V638.902Z" fill="white"/>
<path d="M430.138 638.902H418.563V642.739H430.138V638.902Z" fill="white"/>
<path d="M369.852 648.976H358.277V652.813H369.852V648.976Z" fill="white"/>
<path d="M384.922 648.976H373.348V652.813H384.922V648.976Z" fill="white"/>
<path d="M415.068 648.976H403.493V652.813H415.068V648.976Z" fill="white"/>
<path d="M430.138 648.976H418.563V652.813H430.138V648.976Z" fill="white"/>
<path d="M369.852 659.046H358.277V662.883H369.852V659.046Z" fill="white"/>
<path d="M384.922 659.046H373.348V662.883H384.922V659.046Z" fill="white"/>
<path d="M415.068 659.046H403.493V662.883H415.068V659.046Z" fill="white"/>
<path d="M430.138 659.046H418.563V662.883H430.138V659.046Z" fill="white"/>
<path d="M369.852 669.12H358.277V672.957H369.852V669.12Z" fill="white"/>
<path d="M384.922 669.12H373.348V672.957H384.922V669.12Z" fill="white"/>
<path d="M399.993 669.12H388.418V672.957H399.993V669.12Z" fill="white"/>
<path d="M415.068 669.12H403.493V672.957H415.068V669.12Z" fill="white"/>
<path d="M369.852 679.189H358.277V683.026H369.852V679.189Z" fill="white"/>
<path d="M384.922 679.189H373.348V683.026H384.922V679.189Z" fill="white"/>
<path d="M399.993 679.189H388.418V683.026H399.993V679.189Z" fill="white"/>
<path d="M415.068 679.189H403.493V683.026H415.068V679.189Z" fill="white"/>
<path d="M430.138 679.189H418.563V683.026H430.138V679.189Z" fill="white"/>
<path d="M384.922 704.894H373.348V708.731H384.922V704.894Z" fill="white"/>
<path d="M415.068 704.894H403.493V708.731H415.068V704.894Z" fill="white"/>
<path d="M430.138 704.894H418.563V708.731H430.138V704.894Z" fill="white"/>
<path d="M369.852 714.968H358.277V718.805H369.852V714.968Z" fill="white"/>
<path d="M384.922 714.968H373.348V718.805H384.922V714.968Z" fill="white"/>
<path d="M399.993 714.968H388.418V718.805H399.993V714.968Z" fill="white"/>
<path d="M415.068 714.968H403.493V718.805H415.068V714.968Z" fill="white"/>
<path d="M430.138 714.968H418.563V718.805H430.138V714.968Z" fill="white"/>
<path d="M369.852 725.038H358.277V728.875H369.852V725.038Z" fill="white"/>
<path d="M384.922 725.038H373.348V728.875H384.922V725.038Z" fill="white"/>
<path d="M399.993 725.038H388.418V728.875H399.993V725.038Z" fill="white"/>
<path d="M415.068 725.038H403.493V728.875H415.068V725.038Z" fill="white"/>
<path d="M430.138 725.038H418.563V728.875H430.138V725.038Z" fill="white"/>
<path d="M369.852 735.112H358.277V738.949H369.852V735.112Z" fill="white"/>
<path d="M384.922 735.112H373.348V738.949H384.922V735.112Z" fill="white"/>
<path d="M399.993 735.112H388.418V738.949H399.993V735.112Z" fill="white"/>
<path d="M415.068 735.112H403.493V738.949H415.068V735.112Z" fill="white"/>
<path d="M430.138 735.112H418.563V738.949H430.138V735.112Z" fill="white"/>
<path d="M369.852 745.181H358.277V749.018H369.852V745.181Z" fill="white"/>
<path d="M384.922 745.181H373.348V749.018H384.922V745.181Z" fill="white"/>
<path d="M399.993 745.181H388.418V749.018H399.993V745.181Z" fill="white"/>
<path d="M415.068 745.181H403.493V749.018H415.068V745.181Z" fill="white"/>
<path d="M430.138 745.181H418.563V749.018H430.138V745.181Z" fill="white"/>
<path d="M369.852 770.886H358.277V774.723H369.852V770.886Z" fill="white"/>
<path d="M399.993 770.886H388.418V774.723H399.993V770.886Z" fill="white"/>
<path d="M430.138 770.886H418.563V774.723H430.138V770.886Z" fill="white"/>
<path d="M369.852 780.96H358.277V784.798H369.852V780.96Z" fill="white"/>
<path d="M384.922 780.96H373.348V784.798H384.922V780.96Z" fill="white"/>
<path d="M399.993 780.96H388.418V784.798H399.993V780.96Z" fill="white"/>
<path d="M415.068 780.96H403.493V784.798H415.068V780.96Z" fill="white"/>
<path d="M369.852 791.03H358.277V794.867H369.852V791.03Z" fill="white"/>
<path d="M384.922 791.03H373.348V794.867H384.922V791.03Z" fill="white"/>
<path d="M399.993 791.03H388.418V794.867H399.993V791.03Z" fill="white"/>
<path d="M415.068 791.03H403.493V794.867H415.068V791.03Z" fill="white"/>
<path d="M369.852 801.104H358.277V804.941H369.852V801.104Z" fill="white"/>
<path d="M384.922 801.104H373.348V804.941H384.922V801.104Z" fill="white"/>
<path d="M415.068 801.104H403.493V804.941H415.068V801.104Z" fill="white"/>
<path d="M430.138 801.104H418.563V804.941H430.138V801.104Z" fill="white"/>
<path d="M369.852 811.173H358.277V815.01H369.852V811.173Z" fill="white"/>
<path d="M384.922 811.173H373.348V815.01H384.922V811.173Z" fill="white"/>
<path d="M399.993 811.173H388.418V815.01H399.993V811.173Z" fill="white"/>
<path d="M415.068 811.173H403.493V815.01H415.068V811.173Z" fill="white"/>
<path d="M430.138 811.173H418.563V815.01H430.138V811.173Z" fill="white"/>
<path d="M369.852 836.883H358.277V840.72H369.852V836.883Z" fill="white"/>
<path d="M399.993 836.883H388.418V840.72H399.993V836.883Z" fill="white"/>
<path d="M415.068 836.883H403.493V840.72H415.068V836.883Z" fill="white"/>
<path d="M430.138 836.883H418.563V840.72H430.138V836.883Z" fill="white"/>
<path d="M369.852 846.953H358.277V850.79H369.852V846.953Z" fill="white"/>
<path d="M399.993 846.953H388.418V850.79H399.993V846.953Z" fill="white"/>
<path d="M415.068 846.953H403.493V850.79H415.068V846.953Z" fill="white"/>
<path d="M430.138 846.953H418.563V850.79H430.138V846.953Z" fill="white"/>
<path d="M369.852 857.022H358.277V860.859H369.852V857.022Z" fill="white"/>
<path d="M384.922 857.022H373.348V860.859H384.922V857.022Z" fill="white"/>
<path d="M415.068 857.022H403.493V860.859H415.068V857.022Z" fill="white"/>
<path d="M430.138 857.022H418.563V860.859H430.138V857.022Z" fill="white"/>
<path d="M369.852 867.096H358.277V870.933H369.852V867.096Z" fill="white"/>
<path d="M384.922 867.096H373.348V870.933H384.922V867.096Z" fill="white"/>
<path d="M399.993 867.096H388.418V870.933H399.993V867.096Z" fill="white"/>
<path d="M415.068 867.096H403.493V870.933H415.068V867.096Z" fill="white"/>
<path d="M430.138 867.096H418.563V870.933H430.138V867.096Z" fill="white"/>
<path d="M369.852 877.165H358.277V881.003H369.852V877.165Z" fill="white"/>
<path d="M384.922 877.165H373.348V881.003H384.922V877.165Z" fill="white"/>
<path d="M415.068 877.165H403.493V881.003H415.068V877.165Z" fill="white"/>
<path d="M430.138 877.165H418.563V881.003H430.138V877.165Z" fill="white"/>
<path d="M369.852 902.875H358.277V906.712H369.852V902.875Z" fill="white"/>
<path d="M399.993 902.875H388.418V906.712H399.993V902.875Z" fill="white"/>
<path d="M415.068 902.875H403.493V906.712H415.068V902.875Z" fill="white"/>
<path d="M430.138 902.875H418.563V906.712H430.138V902.875Z" fill="white"/>
<path d="M369.852 912.945H358.277V916.782H369.852V912.945Z" fill="white"/>
<path d="M384.922 912.945H373.348V916.782H384.922V912.945Z" fill="white"/>
<path d="M399.993 912.945H388.418V916.782H399.993V912.945Z" fill="white"/>
<path d="M415.068 912.945H403.493V916.782H415.068V912.945Z" fill="white"/>
<path d="M430.138 912.945H418.563V916.782H430.138V912.945Z" fill="white"/>
<path d="M369.852 923.019H358.277V926.856H369.852V923.019Z" fill="white"/>
<path d="M384.922 923.019H373.348V926.856H384.922V923.019Z" fill="white"/>
<path d="M399.993 923.019H388.418V926.856H399.993V923.019Z" fill="white"/>
<path d="M415.068 923.019H403.493V926.856H415.068V923.019Z" fill="white"/>
<path d="M430.138 923.019H418.563V926.856H430.138V923.019Z" fill="white"/>
</g>
<path d="M343.856 469.333L328.538 484.954V952.872H343.856V469.333Z" fill="url(#paint36_linear_1195_181)"/>
<path d="M305.376 426.047H154.128V440.629H305.376V426.047Z" fill="#00E8E2"/>
<path d="M310.445 431.388H155.388V948.35H310.445V431.388Z" fill="url(#paint37_linear_1195_181)"/>
<path d="M302.366 436.792H163.467V948.35H302.366V436.792Z" fill="url(#paint38_linear_1195_181)"/>
<path d="M265.039 450.985H248.488C248 450.985 247.604 451.414 247.604 451.943V453.864C247.604 454.394 248 454.823 248.488 454.823H265.039C265.528 454.823 265.923 454.394 265.923 453.864V451.943C265.923 451.414 265.528 450.985 265.039 450.985Z" fill="#00E8E2"/>
<path d="M241.193 481.203H224.642C224.154 481.203 223.758 481.632 223.758 482.161V484.082C223.758 484.611 224.154 485.04 224.642 485.04H241.193C241.681 485.04 242.077 484.611 242.077 484.082V482.161C242.077 481.632 241.681 481.203 241.193 481.203Z" fill="#00E8E2"/>
<path d="M217.345 516.978H200.794C200.306 516.978 199.91 517.406 199.91 517.936V519.857C199.91 520.386 200.306 520.815 200.794 520.815H217.345C217.833 520.815 218.229 520.386 218.229 519.857V517.936C218.229 517.406 217.833 516.978 217.345 516.978Z" fill="#00E8E2"/>
<path d="M265.039 516.978H248.488C248 516.978 247.604 517.406 247.604 517.936V519.857C247.604 520.386 248 520.815 248.488 520.815H265.039C265.528 520.815 265.923 520.386 265.923 519.857V517.936C265.923 517.406 265.528 516.978 265.039 516.978Z" fill="#00E8E2"/>
<path d="M241.193 537.121H224.642C224.154 537.121 223.758 537.55 223.758 538.079V540C223.758 540.529 224.154 540.958 224.642 540.958H241.193C241.681 540.958 242.077 540.529 242.077 540V538.079C242.077 537.55 241.681 537.121 241.193 537.121Z" fill="#00E8E2"/>
<path d="M265.039 537.121H248.488C248 537.121 247.604 537.55 247.604 538.079V540C247.604 540.529 248 540.958 248.488 540.958H265.039C265.528 540.958 265.923 540.529 265.923 540V538.079C265.923 537.55 265.528 537.121 265.039 537.121Z" fill="#00E8E2"/>
<path d="M217.345 557.265H200.794C200.306 557.265 199.91 557.694 199.91 558.223V560.144C199.91 560.673 200.306 561.102 200.794 561.102H217.345C217.833 561.102 218.229 560.673 218.229 560.144V558.223C218.229 557.694 217.833 557.265 217.345 557.265Z" fill="#00E8E2"/>
<path d="M217.345 582.974H200.794C200.306 582.974 199.91 583.403 199.91 583.933V585.854C199.91 586.383 200.306 586.812 200.794 586.812H217.345C217.833 586.812 218.229 586.383 218.229 585.854V583.933C218.229 583.403 217.833 582.974 217.345 582.974Z" fill="#00E8E2"/>
<path d="M241.193 593.044H224.642C224.154 593.044 223.758 593.473 223.758 594.002V595.923C223.758 596.452 224.154 596.881 224.642 596.881H241.193C241.681 596.881 242.077 596.452 242.077 595.923V594.002C242.077 593.473 241.681 593.044 241.193 593.044Z" fill="#00E8E2"/>
<path d="M241.193 603.113H224.642C224.154 603.113 223.758 603.542 223.758 604.071V605.992C223.758 606.521 224.154 606.95 224.642 606.95H241.193C241.681 606.95 242.077 606.521 242.077 605.992V604.071C242.077 603.542 241.681 603.113 241.193 603.113Z" fill="#00E8E2"/>
<path d="M288.887 613.187H272.336C271.848 613.187 271.452 613.616 271.452 614.145V616.066C271.452 616.596 271.848 617.024 272.336 617.024H288.887C289.375 617.024 289.771 616.596 289.771 616.066V614.145C289.771 613.616 289.375 613.187 288.887 613.187Z" fill="#00E8E2"/>
<path d="M193.497 648.967H176.946C176.458 648.967 176.062 649.396 176.062 649.925V651.846C176.062 652.375 176.458 652.804 176.946 652.804H193.497C193.986 652.804 194.381 652.375 194.381 651.846V649.925C194.381 649.396 193.986 648.967 193.497 648.967Z" fill="#00E8E2"/>
<path d="M241.193 648.967H224.642C224.154 648.967 223.758 649.396 223.758 649.925V651.846C223.758 652.375 224.154 652.804 224.642 652.804H241.193C241.681 652.804 242.077 652.375 242.077 651.846V649.925C242.077 649.396 241.681 648.967 241.193 648.967Z" fill="#00E8E2"/>
<path d="M217.345 714.959H200.794C200.306 714.959 199.91 715.388 199.91 715.917V717.838C199.91 718.367 200.306 718.796 200.794 718.796H217.345C217.833 718.796 218.229 718.367 218.229 717.838V715.917C218.229 715.388 217.833 714.959 217.345 714.959Z" fill="#00E8E2"/>
<path d="M265.039 714.959H248.488C248 714.959 247.604 715.388 247.604 715.917V717.838C247.604 718.367 248 718.796 248.488 718.796H265.039C265.528 718.796 265.923 718.367 265.923 717.838V715.917C265.923 715.388 265.528 714.959 265.039 714.959Z" fill="#00E8E2"/>
<path d="M288.887 725.028H272.336C271.848 725.028 271.452 725.457 271.452 725.986V727.907C271.452 728.436 271.848 728.865 272.336 728.865H288.887C289.375 728.865 289.771 728.436 289.771 727.907V725.986C289.771 725.457 289.375 725.028 288.887 725.028Z" fill="#00E8E2"/>
<path d="M288.887 735.102H272.336C271.848 735.102 271.452 735.531 271.452 736.06V737.981C271.452 738.51 271.848 738.939 272.336 738.939H288.887C289.375 738.939 289.771 738.51 289.771 737.981V736.06C289.771 735.531 289.375 735.102 288.887 735.102Z" fill="#00E8E2"/>
<path d="M241.193 745.172H224.642C224.154 745.172 223.758 745.601 223.758 746.13V748.051C223.758 748.58 224.154 749.009 224.642 749.009H241.193C241.681 749.009 242.077 748.58 242.077 748.051V746.13C242.077 745.601 241.681 745.172 241.193 745.172Z" fill="#00E8E2"/>
<path d="M217.345 780.951H200.794C200.306 780.951 199.91 781.38 199.91 781.909V783.83C199.91 784.359 200.306 784.788 200.794 784.788H217.345C217.833 784.788 218.229 784.359 218.229 783.83V781.909C218.229 781.38 217.833 780.951 217.345 780.951Z" fill="#00E8E2"/>
<path d="M217.345 791.02H200.794C200.306 791.02 199.91 791.449 199.91 791.978V793.899C199.91 794.428 200.306 794.857 200.794 794.857H217.345C217.833 794.857 218.229 794.428 218.229 793.899V791.978C218.229 791.449 217.833 791.02 217.345 791.02Z" fill="#00E8E2"/>
<path d="M241.193 801.094H224.642C224.154 801.094 223.758 801.523 223.758 802.052V803.973C223.758 804.503 224.154 804.931 224.642 804.931H241.193C241.681 804.931 242.077 804.503 242.077 803.973V802.052C242.077 801.523 241.681 801.094 241.193 801.094Z" fill="#00E8E2"/>
<path d="M241.193 821.238H224.642C224.154 821.238 223.758 821.667 223.758 822.196V824.117C223.758 824.646 224.154 825.075 224.642 825.075H241.193C241.681 825.075 242.077 824.646 242.077 824.117V822.196C242.077 821.667 241.681 821.238 241.193 821.238Z" fill="#00E8E2"/>
<path d="M217.345 846.943H200.794C200.306 846.943 199.91 847.372 199.91 847.901V849.822C199.91 850.351 200.306 850.78 200.794 850.78H217.345C217.833 850.78 218.229 850.351 218.229 849.822V847.901C218.229 847.372 217.833 846.943 217.345 846.943Z" fill="#00E8E2"/>
<path d="M155.388 431.388L132.623 454.602V948.35H155.388V431.388Z" fill="url(#paint39_linear_1195_181)"/>
<g style="mix-blend-mode:overlay">
<path d="M310.445 450.487H155.388V457.419H310.445V450.487Z" fill="white"/>
</g>
<g style="mix-blend-mode:overlay">
<path d="M310.445 476.868H155.388V483.804H310.445V476.868Z" fill="white"/>
</g>
<g style="mix-blend-mode:overlay">
<path d="M310.445 503.253H155.388V510.185H310.445V503.253Z" fill="white"/>
</g>
<g style="mix-blend-mode:overlay">
<path d="M310.445 529.634H155.388V536.57H310.445V529.634Z" fill="white"/>
</g>
<g style="mix-blend-mode:overlay">
<path d="M310.445 556.014H155.388V562.946H310.445V556.014Z" fill="white"/>
</g>
<g style="mix-blend-mode:overlay">
<path d="M310.445 582.395H155.388V589.331H310.445V582.395Z" fill="white"/>
</g>
<g style="mix-blend-mode:overlay">
<path d="M310.445 608.78H155.388V615.712H310.445V608.78Z" fill="white"/>
</g>
<g style="mix-blend-mode:overlay">
<path d="M310.445 635.161H155.388V642.097H310.445V635.161Z" fill="white"/>
</g>
<g style="mix-blend-mode:overlay">
<path d="M310.445 661.541H155.388V668.473H310.445V661.541Z" fill="white"/>
</g>
<g style="mix-blend-mode:overlay">
<path d="M310.445 687.922H155.388V694.858H310.445V687.922Z" fill="white"/>
</g>
<g style="mix-blend-mode:overlay">
<path d="M310.445 714.307H155.388V721.239H310.445V714.307Z" fill="white"/>
</g>
<g style="mix-blend-mode:overlay">
<path d="M310.445 740.688H155.388V747.624H310.445V740.688Z" fill="white"/>
</g>
<g style="mix-blend-mode:overlay">
<path d="M310.445 767.068H155.388V774H310.445V767.068Z" fill="white"/>
</g>
<g style="mix-blend-mode:overlay">
<path d="M310.445 793.449H155.388V800.385H310.445V793.449Z" fill="white"/>
</g>
<g style="mix-blend-mode:overlay">
<path d="M310.445 819.834H155.388V826.771H310.445V819.834Z" fill="white"/>
</g>
<g style="mix-blend-mode:overlay">
<path d="M310.445 846.21H155.388V853.146H310.445V846.21Z" fill="white"/>
</g>
<g style="mix-blend-mode:overlay">
<path d="M310.445 872.595H155.388V879.532H310.445V872.595Z" fill="white"/>
</g>
<g style="mix-blend-mode:overlay">
<path d="M310.445 898.976H155.388V905.912H310.445V898.976Z" fill="white"/>
</g>
<path style="mix-blend-mode:screen" d="M1006.88 861.602H-56V943.344H1006.88V861.602Z" fill="url(#paint40_linear_1195_181)"/>
<path d="M158.486 885.64H152.012V940.183H158.486V885.64Z" fill="#030A0B"/>
<path d="M155.247 890.157C166.16 890.157 175.006 881.136 175.006 870.009C175.006 858.881 166.16 849.86 155.247 849.86C144.334 849.86 135.487 858.881 135.487 870.009C135.487 881.136 144.334 890.157 155.247 890.157Z" fill="white"/>
<path d="M155.247 885.64C163.714 885.64 170.578 878.641 170.578 870.009C170.578 861.376 163.714 854.378 155.247 854.378C146.78 854.378 139.916 861.376 139.916 870.009C139.916 878.641 146.78 885.64 155.247 885.64Z" fill="#00E8E2"/>
<g opacity="0.45">
</g>
<g opacity="0.87">
<path d="M321.322 350.838C321.322 352.481 320.014 353.813 318.405 353.813C316.796 353.813 315.488 352.481 315.488 350.838C315.488 349.195 316.796 347.863 318.405 347.863C320.014 347.863 321.322 349.195 321.322 350.838Z" fill="white"/>
<path d="M74.2421 461.697C74.2421 463.589 72.735 465.127 70.8788 465.127C69.0227 465.127 67.5156 463.589 67.5156 461.697C67.5156 459.805 69.0227 458.267 70.8788 458.267C72.735 458.267 74.2421 459.805 74.2421 461.697Z" fill="white"/>
<path d="M16.5638 376.926C18.0747 376.926 19.2994 375.676 19.2994 374.134C19.2994 372.591 18.0747 371.341 16.5638 371.341C15.0529 371.341 13.8281 372.591 13.8281 374.134C13.8281 375.676 15.0529 376.926 16.5638 376.926Z" fill="white"/>
<path d="M193.806 374.277C193.806 375.48 192.852 376.457 191.672 376.457C190.492 376.457 189.537 375.48 189.537 374.277C189.537 373.075 190.492 372.098 191.672 372.098C192.852 372.098 193.806 373.075 193.806 374.277Z" fill="white"/>
<path d="M114.592 326.579C115.353 326.579 115.971 325.949 115.971 325.171C115.971 324.393 115.353 323.763 114.592 323.763C113.83 323.763 113.213 324.393 113.213 325.171C113.213 325.949 113.83 326.579 114.592 326.579Z" fill="white"/>
<path d="M100.154 412.706C101.428 412.706 102.461 411.65 102.461 410.349C102.461 409.047 101.428 407.992 100.154 407.992C98.8795 407.992 97.8467 409.047 97.8467 410.349C97.8467 411.65 98.8795 412.706 100.154 412.706Z" fill="white"/>
</g>
<defs>
<linearGradient id="paint0_linear_1195_181" x1="474.587" y1="25.0489" x2="474.587" y2="1254.06" gradientUnits="userSpaceOnUse">
<stop stop-color="#081F53"/>
<stop offset="1" stop-color="#000309"/>
</linearGradient>
<linearGradient id="paint1_linear_1195_181" x1="-478" y1="184.736" x2="474.6" y2="184.736" gradientUnits="userSpaceOnUse">
<stop stop-color="#1F79C3"/>
<stop offset="0.11" stop-color="#1D74BB"/>
<stop offset="0.27" stop-color="#1A67A7"/>
<stop offset="0.46" stop-color="#145286"/>
<stop offset="0.68" stop-color="#0D3559"/>
<stop offset="0.92" stop-color="#03111F"/>
<stop offset="1" stop-color="#000309"/>
</linearGradient>
<linearGradient id="paint2_linear_1195_181" x1="225.073" y1="457.274" x2="488.856" y2="369.564" gradientUnits="userSpaceOnUse">
<stop stop-color="#1F30C3"/>
<stop offset="0.11" stop-color="#1D2EBB"/>
<stop offset="0.27" stop-color="#1A29A7"/>
<stop offset="0.46" stop-color="#142186"/>
<stop offset="0.68" stop-color="#0D1659"/>
<stop offset="0.92" stop-color="#03081F"/>
<stop offset="1" stop-color="#000309"/>
</linearGradient>
<linearGradient id="paint3_linear_1195_181" x1="136.918" y1="166.74" x2="146.686" y2="173.67" gradientUnits="userSpaceOnUse">
<stop stop-color="#1F30C3"/>
<stop offset="1" stop-color="#5F2DC4"/>
</linearGradient>
<linearGradient id="paint4_linear_1195_181" x1="132.923" y1="163.018" x2="143.748" y2="170.698" gradientUnits="userSpaceOnUse">
<stop stop-color="#1F30C3"/>
<stop offset="1" stop-color="#5F2DC4"/>
</linearGradient>
<linearGradient id="paint5_linear_1195_181" x1="72.9381" y1="184.507" x2="93.823" y2="159.451" gradientUnits="userSpaceOnUse">
<stop stop-color="#000309"/>
<stop offset="1" stop-color="#9861DC"/>
</linearGradient>
<linearGradient id="paint6_linear_1195_181" x1="129.581" y1="94.7501" x2="112.684" y2="115.021" gradientUnits="userSpaceOnUse">
<stop stop-color="#000309"/>
<stop offset="1" stop-color="#9861DC"/>
</linearGradient>
<linearGradient id="paint7_linear_1195_181" x1="64.9014" y1="46.8054" x2="117.746" y2="182.073" gradientUnits="userSpaceOnUse">
<stop stop-color="#000309"/>
<stop offset="1" stop-color="#9861DC"/>
</linearGradient>
<linearGradient id="paint8_linear_1195_181" x1="47.4381" y1="84.2034" x2="97.5254" y2="119.738" gradientUnits="userSpaceOnUse">
<stop stop-color="#EBF2FF"/>
<stop offset="1" stop-color="#151413"/>
</linearGradient>
<linearGradient id="paint9_linear_1195_181" x1="55.9137" y1="110.647" x2="93.2737" y2="98.2241" gradientUnits="userSpaceOnUse">
<stop stop-color="#1F30C3"/>
<stop offset="1" stop-color="#5F2DC4"/>
</linearGradient>
<linearGradient id="paint10_linear_1195_181" x1="51.6322" y1="87.2867" x2="58.4508" y2="97.5602" gradientUnits="userSpaceOnUse">
<stop stop-color="#EBF2FF"/>
<stop offset="1" stop-color="#151413"/>
</linearGradient>
<linearGradient id="paint11_linear_1195_181" x1="76.2274" y1="116.377" x2="114.549" y2="70.4011" gradientUnits="userSpaceOnUse">
<stop stop-color="#1F30C3"/>
<stop offset="0.11" stop-color="#1D2EBB"/>
<stop offset="0.27" stop-color="#1A29A7"/>
<stop offset="0.46" stop-color="#142186"/>
<stop offset="0.68" stop-color="#0D1659"/>
<stop offset="0.92" stop-color="#03081F"/>
<stop offset="1" stop-color="#000309"/>
</linearGradient>
<radialGradient id="paint12_radial_1195_181" cx="0" cy="0" r="1" gradientUnits="userSpaceOnUse" gradientTransform="translate(228.72 712.397) scale(497.689 498.361)">
<stop stop-color="#000309"/>
<stop offset="0.67" stop-color="#000104"/>
<stop offset="1"/>
</radialGradient>
<radialGradient id="paint13_radial_1195_181" cx="0" cy="0" r="1" gradientUnits="userSpaceOnUse" gradientTransform="translate(113.794 431.019) scale(454.556 455.169)">
<stop stop-color="#000309"/>
<stop offset="1" stop-color="#DC61BE"/>
</radialGradient>
<linearGradient id="paint14_linear_1195_181" x1="139.374" y1="461.997" x2="678.807" y2="461.997" gradientUnits="userSpaceOnUse">
<stop stop-color="#651FC3"/>
<stop offset="1" stop-color="#000309"/>
</linearGradient>
<linearGradient id="paint15_linear_1195_181" x1="11.8507" y1="811.48" x2="731.001" y2="811.48" gradientUnits="userSpaceOnUse">
<stop stop-color="#651FC3"/>
<stop offset="1" stop-color="#000309"/>
</linearGradient>
<linearGradient id="paint16_linear_1195_181" x1="-249.36" y1="634.641" x2="535.075" y2="577.581" gradientUnits="userSpaceOnUse">
<stop stop-color="#651FC3"/>
<stop offset="1" stop-color="#000309"/>
</linearGradient>
<linearGradient id="paint17_linear_1195_181" x1="341.202" y1="589.303" x2="496.669" y2="589.303" gradientUnits="userSpaceOnUse">
<stop stop-color="#651FC3"/>
<stop offset="0.11" stop-color="#611DBB"/>
<stop offset="0.27" stop-color="#561AA7"/>
<stop offset="0.46" stop-color="#441586"/>
<stop offset="0.68" stop-color="#2B0F59"/>
<stop offset="0.92" stop-color="#0C061F"/>
<stop offset="1" stop-color="#000309"/>
</linearGradient>
<radialGradient id="paint18_radial_1195_181" cx="0" cy="0" r="1" gradientUnits="userSpaceOnUse" gradientTransform="translate(427.814 108.089) scale(76.0546 97.8942)">
<stop stop-color="#000309"/>
<stop offset="1"/>
</radialGradient>
<radialGradient id="paint19_radial_1195_181" cx="0" cy="0" r="1" gradientUnits="userSpaceOnUse" gradientTransform="translate(389.082 85.2513) scale(73.3308 94.3883)">
<stop stop-color="#000309"/>
<stop offset="1" stop-color="#7161DC"/>
</radialGradient>
<linearGradient id="paint20_linear_1195_181" x1="364.613" y1="66.6582" x2="440.95" y2="66.6582" gradientUnits="userSpaceOnUse">
<stop stop-color="#1F79C3"/>
<stop offset="0.11" stop-color="#1D74BB"/>
<stop offset="0.27" stop-color="#1A67A7"/>
<stop offset="0.46" stop-color="#145286"/>
<stop offset="0.68" stop-color="#0D3559"/>
<stop offset="0.92" stop-color="#03111F"/>
<stop offset="1" stop-color="#000309"/>
</linearGradient>
<linearGradient id="paint21_linear_1195_181" x1="360.701" y1="93.192" x2="466.07" y2="93.192" gradientUnits="userSpaceOnUse">
<stop stop-color="#1F79C3"/>
<stop offset="0.11" stop-color="#1D74BB"/>
<stop offset="0.27" stop-color="#1A67A7"/>
<stop offset="0.46" stop-color="#145286"/>
<stop offset="0.68" stop-color="#0D3559"/>
<stop offset="0.92" stop-color="#03111F"/>
<stop offset="1" stop-color="#000309"/>
</linearGradient>
<linearGradient id="paint22_linear_1195_181" x1="395.624" y1="143.261" x2="504.993" y2="143.261" gradientUnits="userSpaceOnUse">
<stop stop-color="#1F79C3"/>
<stop offset="0.11" stop-color="#1D74BB"/>
<stop offset="0.27" stop-color="#1A67A7"/>
<stop offset="0.46" stop-color="#145286"/>
<stop offset="0.68" stop-color="#0D3559"/>
<stop offset="0.92" stop-color="#03111F"/>
<stop offset="1" stop-color="#000309"/>
</linearGradient>
<linearGradient id="paint23_linear_1195_181" x1="377.332" y1="117.92" x2="474.901" y2="117.92" gradientUnits="userSpaceOnUse">
<stop stop-color="#1F79C3"/>
<stop offset="0.11" stop-color="#1D74BB"/>
<stop offset="0.27" stop-color="#1A67A7"/>
<stop offset="0.46" stop-color="#145286"/>
<stop offset="0.68" stop-color="#0D3559"/>
<stop offset="0.92" stop-color="#03111F"/>
<stop offset="1" stop-color="#000309"/>
</linearGradient>
<linearGradient id="paint24_linear_1195_181" x1="262.098" y1="82.356" x2="131.586" y2="-28.0205" gradientUnits="userSpaceOnUse">
<stop stop-color="#D65DC9"/>
<stop offset="1"/>
</linearGradient>
<linearGradient id="paint25_linear_1195_181" x1="254.709" y1="82.3991" x2="240.65" y2="68.8402" gradientUnits="userSpaceOnUse">
<stop stop-color="#D65DC9"/>
<stop offset="1"/>
</linearGradient>
<linearGradient id="paint26_linear_1195_181" x1="93.2484" y1="489.264" x2="20.2634" y2="427.543" gradientUnits="userSpaceOnUse">
<stop stop-color="#D65DC9"/>
<stop offset="1"/>
</linearGradient>
<linearGradient id="paint27_linear_1195_181" x1="89.1164" y1="489.293" x2="81.2526" y2="481.707" gradientUnits="userSpaceOnUse">
<stop stop-color="#D65DC9"/>
<stop offset="1"/>
</linearGradient>
<linearGradient id="paint28_linear_1195_181" x1="475.442" y1="922.075" x2="475.442" y2="741.464" gradientUnits="userSpaceOnUse">
<stop stop-color="#00E8E2"/>
<stop offset="1"/>
</linearGradient>
<linearGradient id="paint29_linear_1195_181" x1="39.4693" y1="481.826" x2="41.7381" y2="559.401" gradientUnits="userSpaceOnUse">
<stop/>
<stop offset="0.18" stop-color="#000202"/>
<stop offset="0.32" stop-color="#000C0C"/>
<stop offset="0.44" stop-color="#001C1B"/>
<stop offset="0.56" stop-color="#003332"/>
<stop offset="0.66" stop-color="#00504E"/>
<stop offset="0.77" stop-color="#007471"/>
<stop offset="0.87" stop-color="#009F9B"/>
<stop offset="0.96" stop-color="#00D0CA"/>
<stop offset="1" stop-color="#00E8E2"/>
</linearGradient>
<linearGradient id="paint30_linear_1195_181" x1="40.2071" y1="930.669" x2="40.2071" y2="558.266" gradientUnits="userSpaceOnUse">
<stop stop-color="#061232"/>
<stop offset="0.49" stop-color="#143B83"/>
<stop offset="1" stop-color="#0764A5"/>
</linearGradient>
<linearGradient id="paint31_linear_1195_181" x1="40.2072" y1="930.669" x2="40.2072" y2="558.266" gradientUnits="userSpaceOnUse">
<stop stop-color="#00FFFF"/>
<stop offset="0.17" stop-color="#01D0DB"/>
<stop offset="0.47" stop-color="#0485A1"/>
<stop offset="0.72" stop-color="#064E77"/>
<stop offset="0.9" stop-color="#072B5C"/>
<stop offset="1" stop-color="#081F53"/>
</linearGradient>
<linearGradient id="paint32_linear_1195_181" x1="351.789" y1="505.155" x2="351.789" y2="379.345" gradientUnits="userSpaceOnUse">
<stop stop-color="#081F53"/>
<stop offset="0.36" stop-color="#075B82"/>
<stop offset="1" stop-color="#06D2DF"/>
</linearGradient>
<linearGradient id="paint33_linear_1195_181" x1="392.453" y1="519.114" x2="392.453" y2="361.219" gradientUnits="userSpaceOnUse">
<stop stop-color="#09031E"/>
<stop offset="0.63" stop-color="#143B83"/>
<stop offset="0.71" stop-color="#173F87"/>
<stop offset="0.79" stop-color="#214B93"/>
<stop offset="0.87" stop-color="#325FA7"/>
<stop offset="0.95" stop-color="#4A7BC4"/>
<stop offset="1" stop-color="#5C91DA"/>
</linearGradient>
<linearGradient id="paint34_linear_1195_181" x1="382.717" y1="509.006" x2="416.269" y2="386.765" gradientUnits="userSpaceOnUse">
<stop stop-color="#00E8E2"/>
<stop offset="0.01" stop-color="#00DDD7"/>
<stop offset="0.08" stop-color="#00AFAA"/>
<stop offset="0.14" stop-color="#008581"/>
<stop offset="0.22" stop-color="#00615E"/>
<stop offset="0.29" stop-color="#004241"/>
<stop offset="0.38" stop-color="#002A29"/>
<stop offset="0.47" stop-color="#001716"/>
<stop offset="0.58" stop-color="#000A09"/>
<stop offset="0.72" stop-color="#000202"/>
<stop offset="1"/>
</linearGradient>
<linearGradient id="paint35_linear_1195_181" x1="392.453" y1="994.491" x2="392.453" y2="451.187" gradientUnits="userSpaceOnUse">
<stop stop-color="#06D0DD"/>
<stop offset="0.13" stop-color="#06A1B9"/>
<stop offset="0.26" stop-color="#067999"/>
<stop offset="0.4" stop-color="#075880"/>
<stop offset="0.54" stop-color="#073F6C"/>
<stop offset="0.68" stop-color="#072D5E"/>
<stop offset="0.83" stop-color="#072255"/>
<stop offset="1" stop-color="#081F53"/>
</linearGradient>
<linearGradient id="paint36_linear_1195_181" x1="336.197" y1="1054.77" x2="336.197" y2="452.082" gradientUnits="userSpaceOnUse">
<stop stop-color="#081F53"/>
<stop offset="0.36" stop-color="#075B82"/>
<stop offset="1" stop-color="#06D2DF"/>
</linearGradient>
<linearGradient id="paint37_linear_1195_181" x1="232.919" y1="962.434" x2="232.919" y2="436.102" gradientUnits="userSpaceOnUse">
<stop stop-color="#081F53"/>
<stop offset="0.74" stop-color="#050D2B"/>
<stop offset="0.8" stop-color="#050F2D"/>
<stop offset="0.84" stop-color="#051835"/>
<stop offset="0.87" stop-color="#052642"/>
<stop offset="0.9" stop-color="#053B55"/>
<stop offset="0.93" stop-color="#05556D"/>
<stop offset="0.95" stop-color="#05768B"/>
<stop offset="0.97" stop-color="#059DAE"/>
<stop offset="1" stop-color="#06D2DF"/>
</linearGradient>
<linearGradient id="paint38_linear_1195_181" x1="232.914" y1="-551.61" x2="232.914" y2="-551.61" gradientUnits="userSpaceOnUse">
<stop stop-color="#05C8D6"/>
<stop offset="0.03" stop-color="#059DAE"/>
<stop offset="0.05" stop-color="#05768B"/>
<stop offset="0.07" stop-color="#05556D"/>
<stop offset="0.1" stop-color="#053B55"/>
<stop offset="0.13" stop-color="#052642"/>
<stop offset="0.16" stop-color="#051835"/>
<stop offset="0.2" stop-color="#050F2D"/>
<stop offset="0.26" stop-color="#050D2B"/>
<stop offset="1" stop-color="#081F53"/>
</linearGradient>
<linearGradient id="paint39_linear_1195_181" x1="144.003" y1="-551.61" x2="144.003" y2="-551.61" gradientUnits="userSpaceOnUse">
<stop stop-color="#06D2DF"/>
<stop offset="0.11" stop-color="#06CAD8"/>
<stop offset="0.28" stop-color="#06B4C7"/>
<stop offset="0.49" stop-color="#0690AB"/>
<stop offset="0.73" stop-color="#075F85"/>
<stop offset="0.99" stop-color="#072054"/>
<stop offset="1" stop-color="#081F53"/>
</linearGradient>
<linearGradient id="paint40_linear_1195_181" x1="475.442" y1="934.453" x2="475.442" y2="858.957" gradientUnits="userSpaceOnUse">
<stop stop-color="#171536"/>
<stop offset="0.02" stop-color="#151333"/>
<stop offset="0.22" stop-color="#0C0B1C"/>
<stop offset="0.43" stop-color="#05040C"/>
<stop offset="0.68" stop-color="#010102"/>
<stop offset="1"/>
</linearGradient>
</defs>
</svg>
